<svg width="325" height="350" viewBox="0 0 325 350" fill="none" xmlns="http://www.w3.org/2000/svg">
<mask id="path-1-inside-1_424_140" fill="white">
<path d="M0 0H325V350H0V0Z"/>
</mask>
<path d="M0 0H325V350H0V0Z" fill="#FAF7F5"/>
<path d="M31.48 293.28V311.2C31.48 312.04 31.32 312.8 31.08 313.52C30.4 315.4 28.88 316.92 27 317.6C26.28 317.84 25.52 317.96 24.72 317.96C23.96 317.96 23.2 317.84 22.48 317.6C21.64 317.28 20.92 316.84 20.28 316.28C19.6 316.88 18.84 317.32 18 317.64C17.28 317.88 16.52 318 15.72 318C14.96 318 14.2 317.88 13.48 317.64C11.56 316.96 10.04 315.44 9.36 313.52C9.12 312.8 9 312.04 9 311.28V293.28H13.48V311.28C13.48 312.52 14.48 313.52 15.72 313.52C16.96 313.52 18 312.52 18 311.28V293.28H22.48V311.2C22.48 312.44 23.48 313.48 24.72 313.48C25.96 313.48 27 312.44 27 311.2V293.28H31.48ZM51.0922 298.12C51.3322 298.84 51.4922 299.6 51.4922 300.36V304.88C51.4922 305.68 51.3322 306.44 51.0922 307.12C50.7722 308 50.3322 308.76 49.7322 309.4C48.9722 310.24 48.0522 310.88 46.9722 311.24C46.2522 311.48 45.4922 311.64 44.7322 311.64H37.9722V318.4H33.4922V293.64H44.7322C45.4922 293.64 46.2522 293.76 46.9722 294C48.8922 294.68 50.4122 296.2 51.0922 298.12ZM46.9722 304.88V300.36C46.9722 299.16 46.0122 298.16 44.7722 298.12H44.7322H37.9722V307.12H44.7322H44.7722C46.0122 307.08 46.9722 306.12 46.9722 304.88ZM71.4922 313.52V318H60.2122C59.4522 318 58.6922 317.88 57.9722 317.64C56.0522 316.96 54.5322 315.44 53.8522 313.52C53.6122 312.84 53.4922 312.08 53.4922 311.28V293.28H57.9722V311.28C57.9722 312.52 58.9722 313.52 60.2122 313.52H71.4922ZM98.6797 300V302.28C98.6797 303.04 98.5197 303.8 98.2797 304.52C97.9597 305.36 97.5197 306.12 96.9597 306.76C96.1997 307.6 95.2397 308.24 94.1597 308.64C93.9997 308.68 93.8397 308.72 93.6797 308.8C93.1197 308.92 92.5197 309 91.9197 309H87.3997C86.1597 309 85.1597 310.04 85.1597 311.28V313.52H97.5197V318H80.6797V311.28C80.6797 310.48 80.7997 309.72 81.0397 309C81.3597 308.2 81.7997 307.4 82.3597 306.76C82.7597 306.36 83.1997 305.96 83.6797 305.64C84.1197 305.36 84.6397 305.08 85.1597 304.92C85.3197 304.84 85.4797 304.8 85.6397 304.76C86.0397 304.64 86.4797 304.56 86.8797 304.52C87.0797 304.52 87.2397 304.52 87.3997 304.52H91.9197C92.1197 304.52 92.3197 304.48 92.5197 304.44C93.4797 304.16 94.1597 303.32 94.1597 302.28V300C94.1597 300 94.1597 300 94.1597 299.96C94.1197 298.76 93.1197 297.76 91.9197 297.76H87.3997C87.1997 297.76 86.9997 297.8 86.7997 297.84C85.8397 298.12 85.1597 299 85.1597 300H80.6797C80.6797 299.24 80.7997 298.48 81.0397 297.76C81.7197 295.84 83.2397 294.32 85.1597 293.64C85.8797 293.4 86.6397 293.28 87.3997 293.28H91.9197C92.6797 293.28 93.4397 293.4 94.1597 293.64C96.0797 294.32 97.5997 295.84 98.2797 297.76C98.5197 298.48 98.6797 299.24 98.6797 300Z" fill="#2F1966"/>
<path d="M10.192 337.8V338.264C10.192 338.424 10.24 338.584 10.32 338.712C10.48 338.984 10.768 339.16 11.088 339.16H12.896C13.072 339.16 13.232 339.176 13.408 339.208C13.472 339.224 13.536 339.24 13.6 339.256C13.664 339.272 13.728 339.288 13.792 339.32C14 339.384 14.192 339.496 14.368 339.608C14.736 339.848 15.024 340.152 15.232 340.52C15.312 340.664 15.376 340.808 15.44 340.968C15.488 341.112 15.52 341.256 15.552 341.4C15.584 341.56 15.6 341.704 15.6 341.864V342.312C15.584 342.632 15.536 342.936 15.44 343.208C15.168 343.976 14.56 344.584 13.792 344.856C13.504 344.952 13.2 345 12.896 345H8.4V343.208H12.896C13.392 343.208 13.792 342.808 13.792 342.312V342.296V341.88C13.792 341.864 13.792 341.864 13.792 341.864C13.792 341.864 13.792 341.864 13.792 341.848C13.792 341.688 13.744 341.544 13.664 341.4C13.504 341.144 13.216 340.968 12.896 340.968H11.088C10.912 340.968 10.752 340.952 10.576 340.92C10.512 340.904 10.448 340.888 10.384 340.872C10.32 340.856 10.256 340.84 10.192 340.808C9.984 340.744 9.792 340.632 9.616 340.52C9.248 340.28 8.96 339.976 8.752 339.608C8.672 339.464 8.608 339.32 8.544 339.16C8.496 339.016 8.464 338.872 8.432 338.712C8.4 338.568 8.4 338.424 8.4 338.264V337.8C8.4 337.496 8.448 337.192 8.544 336.92C8.816 336.152 9.424 335.544 10.192 335.272C10.48 335.176 10.784 335.112 11.088 335.112H15.6V336.92H11.088C10.592 336.92 10.192 337.32 10.192 337.8ZM23.6 342.312C23.6 342.616 23.536 342.92 23.44 343.208C23.168 343.976 22.56 344.584 21.792 344.856C21.504 344.952 21.2 345 20.896 345H19.088C18.784 345 18.48 344.952 18.192 344.856C17.424 344.584 16.816 343.976 16.544 343.208C16.448 342.92 16.4 342.616 16.4 342.312V340.504C16.4 340.2 16.448 339.896 16.544 339.608C16.816 338.84 17.424 338.232 18.192 337.96C18.48 337.864 18.784 337.8 19.088 337.8H20.896C21.2 337.8 21.504 337.864 21.792 337.96C22.56 338.232 23.168 338.84 23.44 339.608C23.536 339.896 23.6 340.2 23.6 340.504H21.792C21.792 340.008 21.392 339.608 20.896 339.608H19.088C18.592 339.608 18.192 340.008 18.192 340.504V342.312C18.192 342.808 18.592 343.208 19.088 343.208H20.896C21.392 343.208 21.792 342.808 21.792 342.312H23.6ZM31.6 340.504V345H29.792V340.504C29.792 340.008 29.392 339.608 28.896 339.608H26.192V345H24.4V335.112H26.192V337.8H28.896C30.384 337.8 31.6 339.016 31.6 340.504ZM39.44 339.608C39.536 339.896 39.6 340.2 39.6 340.504V342.312C39.6 342.616 39.536 342.92 39.44 343.208C39.168 343.976 38.56 344.584 37.792 344.856C37.504 344.952 37.2 345 36.896 345H35.088C34.784 345 34.48 344.952 34.192 344.856C33.424 344.584 32.816 343.976 32.544 343.208C32.448 342.92 32.4 342.616 32.4 342.312V340.504C32.4 340.2 32.448 339.896 32.544 339.608C32.816 338.84 33.424 338.232 34.192 337.96C34.48 337.864 34.784 337.8 35.088 337.8H36.896C37.2 337.8 37.504 337.864 37.792 337.96C38.56 338.232 39.168 338.84 39.44 339.608ZM37.792 342.312V340.504C37.792 340.008 37.392 339.608 36.896 339.608H35.088C34.592 339.608 34.192 340.008 34.192 340.504V342.312C34.192 342.808 34.592 343.208 35.088 343.208H36.896C37.392 343.208 37.792 342.808 37.792 342.312ZM47.44 339.608C47.536 339.896 47.6 340.2 47.6 340.504V342.312C47.6 342.616 47.536 342.92 47.44 343.208C47.168 343.976 46.56 344.584 45.792 344.856C45.504 344.952 45.2 345 44.896 345H43.088C42.784 345 42.48 344.952 42.192 344.856C41.424 344.584 40.816 343.976 40.544 343.208C40.448 342.92 40.4 342.616 40.4 342.312V340.504C40.4 340.2 40.448 339.896 40.544 339.608C40.816 338.84 41.424 338.232 42.192 337.96C42.48 337.864 42.784 337.8 43.088 337.8H44.896C45.2 337.8 45.504 337.864 45.792 337.96C46.56 338.232 47.168 338.84 47.44 339.608ZM45.792 342.312V340.504C45.792 340.008 45.392 339.608 44.896 339.608H43.088C42.592 339.608 42.192 340.008 42.192 340.504V342.312C42.192 342.808 42.592 343.208 43.088 343.208H44.896C45.392 343.208 45.792 342.808 45.792 342.312ZM51.088 343.208V345C50.768 345 50.464 344.952 50.192 344.856C49.136 344.472 48.4 343.48 48.4 342.312V335.112H50.192V342.312C50.192 342.808 50.592 343.208 51.088 343.208ZM61.911 339.624C62.007 339.912 62.071 340.232 62.071 340.536V342.36C62.071 342.68 62.007 343 61.911 343.272C61.639 344.056 61.015 344.68 60.247 344.952C59.959 345.048 59.639 345.096 59.335 345.096H56.599V348.216H54.775V337.8H59.335C59.639 337.8 59.959 337.864 60.247 337.96C61.015 338.232 61.639 338.856 61.911 339.624ZM60.247 342.36V340.536C60.247 340.04 59.831 339.624 59.335 339.624H56.599V343.272H59.335C59.831 343.272 60.247 342.872 60.247 342.36ZM70.0688 340.504V341.4H68.2608V340.504C68.2608 340.008 67.8608 339.608 67.3648 339.608H66.4688C65.4608 339.608 64.6608 340.408 64.6608 341.4V345H62.8688V337.8H64.6608V338.296C65.1888 337.976 65.8128 337.8 66.4688 337.8H67.3648C67.6688 337.8 67.9728 337.864 68.2608 337.96C69.0288 338.232 69.6368 338.84 69.9088 339.608C70.0048 339.896 70.0688 340.2 70.0688 340.504ZM77.9088 339.608C78.0048 339.896 78.0688 340.2 78.0688 340.504V342.312C78.0688 342.616 78.0048 342.92 77.9088 343.208C77.6368 343.976 77.0288 344.584 76.2608 344.856C75.9728 344.952 75.6688 345 75.3648 345H73.5568C73.2528 345 72.9488 344.952 72.6608 344.856C71.8928 344.584 71.2848 343.976 71.0128 343.208C70.9168 342.92 70.8688 342.616 70.8688 342.312V340.504C70.8688 340.2 70.9168 339.896 71.0128 339.608C71.2848 338.84 71.8928 338.232 72.6608 337.96C72.9488 337.864 73.2528 337.8 73.5568 337.8H75.3648C75.6688 337.8 75.9728 337.864 76.2608 337.96C77.0288 338.232 77.6368 338.84 77.9088 339.608ZM76.2608 342.312V340.504C76.2608 340.008 75.8608 339.608 75.3648 339.608H73.5568C73.0608 339.608 72.6608 340.008 72.6608 340.504V342.312C72.6608 342.808 73.0608 343.208 73.5568 343.208H75.3648C75.8608 343.208 76.2608 342.808 76.2608 342.312ZM81.6048 336.92V335.112H83.4128V336.92H81.6048ZM83.4128 337.8V345.464C83.4128 346.984 82.1808 348.2 80.6768 348.2H78.8688V346.376H80.6768C81.1728 346.376 81.5888 345.976 81.5888 345.464V337.8H83.4128ZM91.4125 342.312H86.0045C86.0045 342.808 86.4045 343.208 86.9005 343.208H91.4125V345H86.9005C86.5965 345 86.2925 344.952 86.0045 344.856C85.2365 344.584 84.6285 343.976 84.3565 343.208C84.2605 342.92 84.2125 342.616 84.2125 342.312V340.504C84.2125 340.2 84.2605 339.896 84.3565 339.608C84.6285 338.84 85.2365 338.232 86.0045 337.96C86.2925 337.864 86.5965 337.8 86.9005 337.8H88.7085C89.0125 337.8 89.3165 337.864 89.6045 337.96C90.3725 338.232 90.9805 338.84 91.2525 339.608C91.3485 339.896 91.4125 340.2 91.4125 340.504V342.312ZM86.9005 339.608C86.4045 339.608 86.0045 340.008 86.0045 340.504H89.6045C89.6045 340.008 89.2045 339.608 88.7085 339.608H86.9005ZM99.4125 342.312C99.4125 342.616 99.3485 342.92 99.2525 343.208C98.9805 343.976 98.3725 344.584 97.6045 344.856C97.3165 344.952 97.0125 345 96.7085 345H94.9005C94.5965 345 94.2925 344.952 94.0045 344.856C93.2365 344.584 92.6285 343.976 92.3565 343.208C92.2605 342.92 92.2125 342.616 92.2125 342.312V340.504C92.2125 340.2 92.2605 339.896 92.3565 339.608C92.6285 338.84 93.2365 338.232 94.0045 337.96C94.2925 337.864 94.5965 337.8 94.9005 337.8H96.7085C97.0125 337.8 97.3165 337.864 97.6045 337.96C98.3725 338.232 98.9805 338.84 99.2525 339.608C99.3485 339.896 99.4125 340.2 99.4125 340.504H97.6045C97.6045 340.008 97.2045 339.608 96.7085 339.608H94.9005C94.4045 339.608 94.0045 340.008 94.0045 340.504V342.312C94.0045 342.808 94.4045 343.208 94.9005 343.208H96.7085C97.2045 343.208 97.6045 342.808 97.6045 342.312H99.4125ZM105.605 343.208V345H103.812C103.493 345 103.189 344.952 102.901 344.856C102.133 344.584 101.525 343.976 101.253 343.208C101.157 342.92 101.109 342.616 101.109 342.312V339.608H100.213V337.8H101.109V335.112H102.901V337.8H104.709V339.608H102.901V342.312C102.901 342.808 103.301 343.208 103.812 343.208H105.605ZM113.616 342.76C113.616 342.904 113.6 343.064 113.568 343.208C113.488 343.528 113.36 343.848 113.152 344.104C112.832 344.536 112.352 344.84 111.808 344.952C111.664 344.984 111.52 345 111.36 345H107.312V343.208H111.36C111.6 343.208 111.808 343 111.808 342.76C111.808 342.504 111.6 342.296 111.36 342.296H108.656C108.512 342.296 108.352 342.28 108.208 342.264C107.664 342.152 107.184 341.832 106.864 341.4C106.656 341.144 106.528 340.84 106.448 340.504C106.416 340.36 106.416 340.2 106.416 340.056C106.416 339.896 106.416 339.752 106.448 339.608C106.528 339.272 106.656 338.968 106.864 338.696C107.184 338.264 107.664 337.96 108.208 337.848C108.352 337.816 108.512 337.8 108.656 337.8H112.704V339.608H108.656C108.416 339.608 108.208 339.8 108.208 340.056C108.208 340.296 108.416 340.504 108.656 340.504H111.36C111.52 340.504 111.664 340.52 111.808 340.552C112.352 340.664 112.832 340.968 113.152 341.4C113.36 341.672 113.488 341.976 113.568 342.296C113.6 342.456 113.616 342.6 113.616 342.76Z" fill="#9192A8"/>
<rect x="15" y="91" width="302" height="102" fill="#00BC13"/>
<path d="M37 111.75H45.25L55.375 159.375L67.75 111.75H76L88.375 159.375L98.5 111.75H106.75L92.5 176.625H85L71.875 124.5L58.75 176.625H51.25L37 111.75ZM113.5 111.75H143.5C149 111.75 153.5 113.5 157 117C160.5 120.5 162.25 125.375 162.25 131.625C162.25 137.875 160.625 142.625 157.375 145.875C154.125 149.125 149.5 150.75 143.5 150.75H122.125V175.875H113.5V111.75ZM122.125 118.875V143.625H141.625C145.125 143.625 147.875 142.625 149.875 140.625C152.125 138.375 153.25 135.375 153.25 131.625C153.25 127.375 152.25 124.25 150.25 122.25C148 120 145.125 118.875 141.625 118.875H122.125ZM174.25 111.75H182.875V168.75H217.375V175.875H174.25V111.75ZM254.125 133.5C254.125 125.75 256.125 119.875 260.125 115.875C263.375 112.625 267.25 111 271.75 111C277.25 111 281.625 112.625 284.875 115.875C288.125 119.125 289.75 123.125 289.75 127.875C289.75 133.875 287.875 139.125 284.125 143.625C280.625 147.875 277 152 273.25 156C271.25 158.25 269.25 160.5 267.25 162.75C265.5 164.75 264 166.75 262.75 168.75H290.875V175.875H252.625V169.5C253.125 167 255.25 163.5 259 159C265.25 152.25 270.375 146.625 274.375 142.125C278.625 137.625 280.75 132.875 280.75 127.875C280.75 124.875 279.75 122.375 277.75 120.375C276.25 118.875 274.375 118.125 272.125 118.125C270.125 118.125 268.375 118.875 266.875 120.375C264.125 123.125 262.75 127.5 262.75 133.5H254.125Z" fill="white"/>
<rect x="8.5" y="9.5" width="316" height="265" stroke="#C4C4C4"/>
<path d="M0 0V-5H-5V0H0ZM0 5H325V-5H0V5ZM5 350V0H-5V350H5Z" fill="#C4C4C4" mask="url(#path-1-inside-1_424_140)"/>
</svg>
