<svg width="325" height="350" viewBox="0 0 325 350" fill="none" xmlns="http://www.w3.org/2000/svg">
<mask id="path-1-inside-1_423_113" fill="white">
<path d="M0 0H325V350H0V0Z"/>
</mask>
<path d="M0 0H325V350H0V0Z" fill="#FAF7F5"/>
<path d="M23.2 313.52L27 318H21.12L18 314.28L17.32 313.52L15.48 311.28L13.68 309.16L13.56 309L13.48 308.92V318H9V293.28H13.48V302.4L13.56 302.28L13.68 302.16L15.48 300L17.32 297.8L18 297.04L21.12 293.28H27L23.2 297.8L22.48 298.68L21.36 300L19.44 302.28L18.48 303.4L18 304.04C17.2 304.96 17.2 306.36 18 307.28L18.48 307.92L19.44 309L21.36 311.28L22.48 312.64L23.2 313.52ZM35.72 313.52V318C34.92 318 34.16 317.88 33.48 317.64C30.84 316.68 29 314.2 29 311.28V293.28H33.48V311.28C33.48 312.52 34.48 313.52 35.72 313.52ZM55.75 311.28H42.23C42.23 312.52 43.23 313.52 44.47 313.52H55.75V318H44.47C43.71 318 42.95 317.88 42.23 317.64C40.31 316.96 38.79 315.44 38.11 313.52C37.87 312.8 37.75 312.04 37.75 311.28V306.76C37.75 306 37.87 305.24 38.11 304.52C38.79 302.6 40.31 301.08 42.23 300.4C42.95 300.16 43.71 300 44.47 300H48.99C49.75 300 50.51 300.16 51.23 300.4C53.15 301.08 54.67 302.6 55.35 304.52C55.59 305.24 55.75 306 55.75 306.76V311.28ZM44.47 304.52C43.23 304.52 42.23 305.52 42.23 306.76H51.23C51.23 305.52 50.23 304.52 48.99 304.52H44.47ZM57.75 318V300H62.23V318H57.75ZM57.75 297.76V293.28H62.23V297.76H57.75ZM82.2344 306.72V317.96H77.7144V306.72C77.7144 305.48 76.7144 304.48 75.4744 304.48H68.7144V317.96H64.2344V299.96H75.4744C76.2344 299.96 76.9944 300.12 77.7144 300.36C79.6344 301.04 81.1544 302.56 81.8344 304.48C82.0744 305.16 82.2344 305.92 82.2344 306.72ZM102.234 311.28H88.7144C88.7144 312.52 89.7144 313.52 90.9544 313.52H102.234V318H90.9544C90.1944 318 89.4344 317.88 88.7144 317.64C86.7944 316.96 85.2744 315.44 84.5944 313.52C84.3544 312.8 84.2344 312.04 84.2344 311.28V306.76C84.2344 306 84.3544 305.24 84.5944 304.52C85.2744 302.6 86.7944 301.08 88.7144 300.4C89.4344 300.16 90.1944 300 90.9544 300H95.4744C96.2344 300 96.9944 300.16 97.7144 300.4C99.6344 301.08 101.154 302.6 101.834 304.52C102.074 305.24 102.234 306 102.234 306.76V311.28ZM90.9544 304.52C89.7144 304.52 88.7144 305.52 88.7144 306.76H97.7144C97.7144 305.52 96.7144 304.52 95.4744 304.52H90.9544ZM118.622 312.12C118.222 312.72 118.622 313.52 119.342 313.52H129.422V318H113.662C112.422 318 111.422 317 111.422 315.76V314.6L112.142 313.52L113.702 311.28L115.302 309L115.902 308.16L116.062 307.92L119.222 303.4L120.022 302.28L120.422 301.72L121.622 300L122.182 299.2C122.582 298.6 122.182 297.8 121.462 297.8H111.422V293.28H127.142C128.382 293.28 129.422 294.32 129.422 295.56V296.72L128.662 297.8L127.102 300L125.502 302.28L124.902 303.16L124.742 303.4L121.582 307.92L120.782 309L120.422 309.6L119.182 311.28L118.622 312.12ZM149.022 304.52C149.262 305.24 149.422 306 149.422 306.76V311.28C149.422 312.04 149.262 312.8 149.022 313.52C148.342 315.44 146.822 316.96 144.902 317.64C144.182 317.88 143.422 318 142.662 318H138.142C137.382 318 136.622 317.88 135.902 317.64C133.982 316.96 132.462 315.44 131.782 313.52C131.542 312.8 131.422 312.04 131.422 311.28V306.76C131.422 306 131.542 305.24 131.782 304.52C132.462 302.6 133.982 301.08 135.902 300.4C136.622 300.16 137.382 300 138.142 300H142.662C143.422 300 144.182 300.16 144.902 300.4C146.822 301.08 148.342 302.6 149.022 304.52ZM144.902 311.28V306.76C144.902 305.52 143.902 304.52 142.662 304.52H138.142C136.902 304.52 135.902 305.52 135.902 306.76V311.28C135.902 312.52 136.902 313.52 138.142 313.52H142.662C143.902 313.52 144.902 312.52 144.902 311.28ZM169.422 306.76V309H164.902V306.76C164.902 305.52 163.902 304.52 162.662 304.52H160.422C157.902 304.52 155.902 306.52 155.902 309V318H151.422V300H155.902V301.24C157.222 300.44 158.782 300 160.422 300H162.662C163.422 300 164.182 300.16 164.902 300.4C166.822 301.08 168.342 302.6 169.022 304.52C169.262 305.24 169.422 306 169.422 306.76ZM184.902 300H189.422V319.64C189.182 323.04 186.542 325.72 183.182 326H173.542V321.48H182.422C182.462 321.48 182.542 321.48 182.582 321.48C182.622 321.48 182.662 321.48 182.702 321.48C183.862 321.4 184.782 320.48 184.862 319.28C184.862 319.28 184.862 319.24 184.862 319.2C184.862 319.16 184.862 319.12 184.862 319.08V317.64C184.142 317.88 183.422 318 182.662 318H178.142C177.382 318 176.622 317.88 175.902 317.64C173.982 316.96 172.462 315.44 171.782 313.52C171.542 312.8 171.422 312.04 171.422 311.28V306.76C171.422 306 171.542 305.24 171.782 304.52C172.462 302.6 173.982 301.08 175.902 300.4C176.622 300.16 177.382 300 178.142 300H180.422C182.022 300 183.582 300.44 184.902 301.24V300ZM184.902 311.28V309C184.902 308.68 184.862 308.32 184.782 308C184.782 307.88 184.742 307.8 184.702 307.68C184.222 306.16 182.982 305 181.422 304.64C181.302 304.6 181.222 304.6 181.102 304.56H178.142C178.102 304.56 178.062 304.56 178.022 304.56C177.982 304.56 177.942 304.56 177.902 304.56C177.702 304.6 177.502 304.64 177.302 304.68C176.502 305 175.902 305.84 175.902 306.76V311.28C175.902 312.52 176.902 313.52 178.142 313.52H182.662C183.862 313.52 184.862 312.56 184.902 311.32V311.28Z" fill="#2F1966"/>
<path d="M15.6 338.264C15.6 338.584 15.536 338.888 15.44 339.16C15.312 339.496 15.136 339.8 14.912 340.056C15.136 340.328 15.312 340.632 15.44 340.968C15.536 341.24 15.6 341.544 15.6 341.864V342.312C15.6 342.616 15.536 342.92 15.44 343.208C15.168 343.976 14.56 344.584 13.792 344.856C13.504 344.952 13.2 345 12.896 345H8.4V335.112H12.896C13.2 335.112 13.504 335.16 13.792 335.256C14.56 335.528 15.168 336.136 15.44 336.904C15.536 337.192 15.6 337.496 15.6 337.8V338.264ZM13.792 342.312V341.864C13.792 341.368 13.392 340.968 12.896 340.968H10.192V343.208H12.896C13.392 343.208 13.792 342.808 13.792 342.312ZM13.792 338.264V337.8C13.792 337.304 13.392 336.904 12.896 336.904H10.192V339.16H12.896C13.392 339.16 13.792 338.76 13.792 338.264ZM23.6 340.504V341.4H21.792V340.504C21.792 340.008 21.392 339.608 20.896 339.608H20C18.992 339.608 18.192 340.408 18.192 341.4V345H16.4V337.8H18.192V338.296C18.72 337.976 19.344 337.8 20 337.8H20.896C21.2 337.8 21.504 337.864 21.792 337.96C22.56 338.232 23.168 338.84 23.44 339.608C23.536 339.896 23.6 340.2 23.6 340.504ZM29.792 337.8H31.6V345H29.792V344.52C29.264 344.84 28.64 345 28 345H27.088C26.784 345 26.48 344.952 26.192 344.856C25.424 344.584 24.816 343.976 24.544 343.208C24.448 342.92 24.4 342.616 24.4 342.312V340.504C24.4 340.2 24.448 339.896 24.544 339.608C24.816 338.84 25.424 338.232 26.192 337.96C26.48 337.864 26.784 337.8 27.088 337.8H28.896C29.2 337.8 29.504 337.864 29.792 337.96V337.8ZM29.792 341.4V340.504V340.488C29.776 339.992 29.376 339.608 28.896 339.608H27.088C26.592 339.608 26.192 340.008 26.192 340.504V342.312C26.192 342.792 26.576 343.192 27.072 343.208H27.088H28C28.128 343.208 28.272 343.192 28.4 343.16C29.072 343.016 29.6 342.488 29.744 341.816C29.776 341.688 29.792 341.544 29.792 341.4ZM39.6 340.488V344.984H37.792V340.488C37.792 339.992 37.392 339.592 36.896 339.592H34.192V344.984H32.4V337.784H36.896C37.2 337.784 37.504 337.848 37.792 337.944C38.56 338.216 39.168 338.824 39.44 339.592C39.536 339.864 39.6 340.168 39.6 340.488ZM45.792 335.112H47.6V345H45.792V344.856C45.504 344.952 45.2 345 44.896 345H43.088C42.784 345 42.48 344.952 42.192 344.856C41.424 344.584 40.816 343.976 40.544 343.208C40.448 342.92 40.4 342.616 40.4 342.312V340.504C40.4 340.2 40.448 339.896 40.544 339.608C40.816 338.84 41.424 338.232 42.192 337.96C42.48 337.864 42.784 337.8 43.088 337.8H44.896C45.2 337.8 45.504 337.864 45.792 337.96V335.112ZM45.792 342.312V340.504C45.792 340.008 45.392 339.608 44.896 339.608H43.088C42.592 339.608 42.192 340.008 42.192 340.504V342.312C42.192 342.808 42.592 343.208 43.088 343.208H44.896C45.392 343.208 45.792 342.808 45.792 342.312ZM51.275 345V335.112H53.067V345H51.275ZM59.2608 335.112H61.0688V345H59.2608V344.856C58.9728 344.952 58.6688 345 58.3648 345H56.5568C56.2528 345 55.9488 344.952 55.6608 344.856C54.8928 344.584 54.2848 343.976 54.0128 343.208C53.9168 342.92 53.8688 342.616 53.8688 342.312V340.504C53.8688 340.2 53.9168 339.896 54.0128 339.608C54.2848 338.84 54.8928 338.232 55.6608 337.96C55.9488 337.864 56.2528 337.8 56.5568 337.8H58.3648C58.6688 337.8 58.9728 337.864 59.2608 337.96V335.112ZM59.2608 342.312V340.504C59.2608 340.008 58.8608 339.608 58.3648 339.608H56.5568C56.0608 339.608 55.6608 340.008 55.6608 340.504V342.312C55.6608 342.808 56.0608 343.208 56.5568 343.208H58.3648C58.8608 343.208 59.2608 342.808 59.2608 342.312ZM69.0688 342.312H63.6608C63.6608 342.808 64.0608 343.208 64.5568 343.208H69.0688V345H64.5568C64.2528 345 63.9488 344.952 63.6608 344.856C62.8928 344.584 62.2848 343.976 62.0128 343.208C61.9168 342.92 61.8688 342.616 61.8688 342.312V340.504C61.8688 340.2 61.9168 339.896 62.0128 339.608C62.2848 338.84 62.8928 338.232 63.6608 337.96C63.9488 337.864 64.2528 337.8 64.5568 337.8H66.3648C66.6688 337.8 66.9728 337.864 67.2608 337.96C68.0288 338.232 68.6368 338.84 68.9088 339.608C69.0048 339.896 69.0688 340.2 69.0688 340.504V342.312ZM64.5568 339.608C64.0608 339.608 63.6608 340.008 63.6608 340.504H67.2608C67.2608 340.008 66.8608 339.608 66.3648 339.608H64.5568ZM77.0688 340.488V344.984H75.2608V340.488C75.2608 339.992 74.8608 339.592 74.3648 339.592H71.6608V344.984H69.8688V337.784H74.3648C74.6688 337.784 74.9728 337.848 75.2608 337.944C76.0288 338.216 76.6368 338.824 76.9088 339.592C77.0048 339.864 77.0688 340.168 77.0688 340.488ZM83.2608 343.208V345H81.4688C81.1488 345 80.8448 344.952 80.5568 344.856C79.7888 344.584 79.1808 343.976 78.9088 343.208C78.8128 342.92 78.7648 342.616 78.7648 342.312V339.608H77.8688V337.8H78.7648V335.112H80.5568V337.8H82.3648V339.608H80.5568V342.312C80.5568 342.808 80.9568 343.208 81.4688 343.208H83.2608ZM84.0719 345V337.8H85.8639V345H84.0719ZM84.0719 336.904V335.112H85.8639V336.904H84.0719ZM92.0576 343.208V345H90.2656C89.9456 345 89.6416 344.952 89.3536 344.856C88.5856 344.584 87.9776 343.976 87.7056 343.208C87.6096 342.92 87.5616 342.616 87.5616 342.312V339.608H86.6656V337.8H87.5616V335.112H89.3536V337.8H91.1616V339.608H89.3536V342.312C89.3536 342.808 89.7536 343.208 90.2656 343.208H92.0576ZM100.165 337.8V345.464C100.165 345.576 100.149 345.672 100.149 345.768C100.117 345.976 100.069 346.184 100.005 346.376C99.7328 347.16 99.1088 347.784 98.3408 348.056C98.0528 348.152 97.7328 348.2 97.4288 348.2H93.7488V346.376H97.4288C97.9248 346.376 98.3408 345.976 98.3408 345.464V343.992C98.0528 344.088 97.7328 344.136 97.4288 344.136H95.6048C95.3488 344.136 95.1088 344.104 94.8688 344.056C94.8048 344.024 94.7408 344.008 94.6928 343.992C93.9088 343.72 93.2848 343.096 93.0128 342.312C92.9168 342.04 92.8688 341.72 92.8688 341.4V337.8H94.6928V341.4C94.6928 341.912 95.0928 342.312 95.6048 342.312H97.4288C97.9248 342.312 98.3408 341.912 98.3408 341.4V337.8H100.165ZM103.838 342.28V340.488H109.23V342.28H103.838ZM120.116 335.112V342.312C120.116 342.616 120.052 342.92 119.956 343.208C119.684 343.976 119.076 344.584 118.308 344.856C118.02 344.952 117.716 345 117.412 345H115.604C115.3 345 114.996 344.952 114.708 344.856C113.94 344.584 113.332 343.976 113.06 343.208C112.964 342.92 112.916 342.616 112.916 342.312V335.112H114.708V342.312C114.708 342.808 115.108 343.208 115.604 343.208H117.412C117.908 343.208 118.308 342.808 118.308 342.312V335.112H120.116ZM120.916 345V335.112H122.708V345H120.916ZM129.013 335.384L128.901 335.72L128.357 337.192L128.037 338.088L127.717 338.984L127.381 339.88L127.109 340.664L127.061 340.792L126.725 341.688L126.405 342.584L126.069 343.48L125.413 345.288H123.509L124.149 343.48L124.485 342.584L124.805 341.688L125.141 340.792L125.301 340.344L125.461 339.88L125.797 338.984L126.117 338.088L126.453 337.192L127.109 335.4V335.384H129.013ZM137.022 335.112V342.312C137.022 342.616 136.958 342.92 136.862 343.208C136.59 343.976 135.982 344.584 135.214 344.856C134.926 344.952 134.622 345 134.318 345H132.51C132.206 345 131.902 344.952 131.614 344.856C130.846 344.584 130.238 343.976 129.966 343.208C129.87 342.92 129.822 342.616 129.822 342.312V335.112H131.614V342.312C131.614 342.808 132.014 343.208 132.51 343.208H134.318C134.814 343.208 135.214 342.808 135.214 342.312V335.112H137.022ZM144.046 343.208L144.99 345H142.958L142.03 343.208L141.63 342.44C141.534 342.264 141.278 342.264 141.182 342.44L140.782 343.208L139.854 345H137.822L138.766 343.208L139.214 342.312L139.598 341.592L139.694 341.4L140.222 340.408C140.318 340.2 140.318 339.944 140.222 339.736L139.694 338.728L139.598 338.552L139.214 337.816L138.75 336.92L137.822 335.128H139.838L140.782 336.92L141.182 337.704C141.278 337.88 141.534 337.88 141.63 337.704L142.03 336.92L142.974 335.128H145.006L144.062 336.92L143.598 337.816L143.198 338.584L143.118 338.728L142.59 339.736C142.494 339.944 142.494 340.2 142.59 340.408L143.118 341.4L143.198 341.56L143.598 342.312L144.046 343.208ZM155.721 336.904C155.817 337.192 155.881 337.496 155.881 337.8V342.312C155.881 342.616 155.817 342.92 155.721 343.208C155.449 343.976 154.841 344.584 154.073 344.856C153.785 344.952 153.481 345 153.177 345H148.681V335.112H153.177C153.481 335.112 153.785 335.16 154.073 335.256C154.841 335.528 155.449 336.136 155.721 336.904ZM154.073 342.312V337.8C154.073 337.304 153.673 336.904 153.177 336.904H150.473V343.208H153.177C153.673 343.208 154.073 342.808 154.073 342.312ZM163.881 342.312H158.473C158.473 342.808 158.873 343.208 159.369 343.208H163.881V345H159.369C159.065 345 158.761 344.952 158.473 344.856C157.705 344.584 157.097 343.976 156.825 343.208C156.729 342.92 156.681 342.616 156.681 342.312V340.504C156.681 340.2 156.729 339.896 156.825 339.608C157.097 338.84 157.705 338.232 158.473 337.96C158.761 337.864 159.065 337.8 159.369 337.8H161.177C161.481 337.8 161.785 337.864 162.073 337.96C162.841 338.232 163.449 338.84 163.721 339.608C163.817 339.896 163.881 340.2 163.881 340.504V342.312ZM159.369 339.608C158.873 339.608 158.473 340.008 158.473 340.504H162.073C162.073 340.008 161.673 339.608 161.177 339.608H159.369ZM171.881 342.76C171.881 342.904 171.865 343.064 171.833 343.208C171.753 343.528 171.625 343.848 171.417 344.104C171.097 344.536 170.617 344.84 170.073 344.952C169.929 344.984 169.785 345 169.625 345H165.577V343.208H169.625C169.865 343.208 170.073 343 170.073 342.76C170.073 342.504 169.865 342.296 169.625 342.296H166.921C166.777 342.296 166.617 342.28 166.473 342.264C165.929 342.152 165.449 341.832 165.129 341.4C164.921 341.144 164.793 340.84 164.713 340.504C164.681 340.36 164.681 340.2 164.681 340.056C164.681 339.896 164.681 339.752 164.713 339.608C164.793 339.272 164.921 338.968 165.129 338.696C165.449 338.264 165.929 337.96 166.473 337.848C166.617 337.816 166.777 337.8 166.921 337.8H170.969V339.608H166.921C166.681 339.608 166.473 339.8 166.473 340.056C166.473 340.296 166.681 340.504 166.921 340.504H169.625C169.785 340.504 169.929 340.52 170.073 340.552C170.617 340.664 171.097 340.968 171.417 341.4C171.625 341.672 171.753 341.976 171.833 342.296C171.865 342.456 171.881 342.6 171.881 342.76ZM172.681 345V337.8H174.473V345H172.681ZM172.681 336.904V335.112H174.473V336.904H172.681ZM180.667 337.8H182.475V345.656C182.379 347.016 181.323 348.088 179.979 348.2H176.123V346.392H179.675C179.691 346.392 179.723 346.392 179.739 346.392C179.755 346.392 179.771 346.392 179.787 346.392C180.251 346.36 180.619 345.992 180.651 345.512C180.651 345.512 180.651 345.496 180.651 345.48C180.651 345.464 180.651 345.448 180.651 345.432V344.856C180.363 344.952 180.075 345 179.771 345H177.963C177.659 345 177.355 344.952 177.067 344.856C176.299 344.584 175.691 343.976 175.419 343.208C175.323 342.92 175.275 342.616 175.275 342.312V340.504C175.275 340.2 175.323 339.896 175.419 339.608C175.691 338.84 176.299 338.232 177.067 337.96C177.355 337.864 177.659 337.8 177.963 337.8H178.875C179.515 337.8 180.139 337.976 180.667 338.296V337.8ZM180.667 342.312V341.4C180.667 341.272 180.651 341.128 180.619 341C180.619 340.952 180.603 340.92 180.587 340.872C180.395 340.264 179.899 339.8 179.275 339.656C179.227 339.64 179.195 339.64 179.147 339.624H177.963C177.947 339.624 177.931 339.624 177.915 339.624C177.899 339.624 177.883 339.624 177.867 339.624C177.787 339.64 177.707 339.656 177.627 339.672C177.307 339.8 177.067 340.136 177.067 340.504V342.312C177.067 342.808 177.467 343.208 177.963 343.208H179.771C180.251 343.208 180.651 342.824 180.667 342.328V342.312ZM190.475 340.488V344.984H188.667V340.488C188.667 339.992 188.267 339.592 187.771 339.592H185.067V344.984H183.275V337.784H187.771C188.075 337.784 188.379 337.848 188.667 337.944C189.435 338.216 190.043 338.824 190.315 339.592C190.411 339.864 190.475 340.168 190.475 340.488ZM194.15 342.28V340.488H199.542V342.28H194.15ZM212.22 335.112V342.28C212.22 342.616 212.156 342.92 212.06 343.208C211.788 343.96 211.18 344.568 210.428 344.84C210.14 344.936 209.836 344.984 209.516 344.984C209.212 344.984 208.908 344.936 208.62 344.84C208.284 344.712 207.996 344.536 207.74 344.312C207.468 344.552 207.164 344.728 206.828 344.856C206.54 344.952 206.236 345 205.916 345C205.612 345 205.308 344.952 205.02 344.856C204.252 344.584 203.644 343.976 203.372 343.208C203.276 342.92 203.228 342.616 203.228 342.312V335.112H205.02V342.312C205.02 342.808 205.42 343.208 205.916 343.208C206.412 343.208 206.828 342.808 206.828 342.312V335.112H208.62V342.28C208.62 342.776 209.02 343.192 209.516 343.192C210.012 343.192 210.428 342.776 210.428 342.28V335.112H212.22ZM220.225 342.312H214.817C214.817 342.808 215.217 343.208 215.713 343.208H220.225V345H215.713C215.409 345 215.105 344.952 214.817 344.856C214.049 344.584 213.441 343.976 213.169 343.208C213.073 342.92 213.025 342.616 213.025 342.312V340.504C213.025 340.2 213.073 339.896 213.169 339.608C213.441 338.84 214.049 338.232 214.817 337.96C215.105 337.864 215.409 337.8 215.713 337.8H217.521C217.825 337.8 218.129 337.864 218.417 337.96C219.185 338.232 219.793 338.84 220.065 339.608C220.161 339.896 220.225 340.2 220.225 340.504V342.312ZM215.713 339.608C215.217 339.608 214.817 340.008 214.817 340.504H218.417C218.417 340.008 218.017 339.608 217.521 339.608H215.713ZM228.065 339.608C228.161 339.896 228.225 340.2 228.225 340.504V342.312C228.225 342.616 228.161 342.92 228.065 343.208C227.793 343.976 227.185 344.584 226.417 344.856C226.129 344.952 225.825 345 225.521 345H223.713C223.409 345 223.105 344.952 222.817 344.856V345H221.025V335.112H222.817V337.96C223.105 337.864 223.409 337.8 223.713 337.8H225.521C225.825 337.8 226.129 337.864 226.417 337.96C227.185 338.232 227.793 338.84 228.065 339.608ZM226.417 342.312V340.504C226.417 340.008 226.017 339.608 225.521 339.608H223.713C223.217 339.608 222.817 340.008 222.817 340.504V342.312C222.817 342.808 223.217 343.208 223.713 343.208H225.521C226.017 343.208 226.417 342.808 226.417 342.312ZM238.94 336.904C239.036 337.192 239.1 337.496 239.1 337.8V342.312C239.1 342.616 239.036 342.92 238.94 343.208C238.668 343.976 238.06 344.584 237.292 344.856C237.004 344.952 236.7 345 236.396 345H231.9V335.112H236.396C236.7 335.112 237.004 335.16 237.292 335.256C238.06 335.528 238.668 336.136 238.94 336.904ZM237.292 342.312V337.8C237.292 337.304 236.892 336.904 236.396 336.904H233.692V343.208H236.396C236.892 343.208 237.292 342.808 237.292 342.312ZM247.1 342.312H241.692C241.692 342.808 242.092 343.208 242.588 343.208H247.1V345H242.588C242.284 345 241.98 344.952 241.692 344.856C240.924 344.584 240.316 343.976 240.044 343.208C239.948 342.92 239.9 342.616 239.9 342.312V340.504C239.9 340.2 239.948 339.896 240.044 339.608C240.316 338.84 240.924 338.232 241.692 337.96C241.98 337.864 242.284 337.8 242.588 337.8H244.396C244.7 337.8 245.004 337.864 245.292 337.96C246.06 338.232 246.668 338.84 246.94 339.608C247.036 339.896 247.1 340.2 247.1 340.504V342.312ZM242.588 339.608C242.092 339.608 241.692 340.008 241.692 340.504H245.292C245.292 340.008 244.892 339.608 244.396 339.608H242.588ZM255.1 337.8L254.444 339.608L253.804 341.4L253.292 342.824L253.148 343.208L252.7 344.472C252.588 344.792 252.284 345 251.932 345H251.052C250.7 345 250.396 344.792 250.284 344.472L249.836 343.208L249.692 342.824L249.18 341.4L248.54 339.608L247.9 337.8H249.804L250.444 339.608L251.1 341.4L251.5 342.504L251.884 341.4L252.54 339.608L253.18 337.8H255.1ZM262.866 342.312H257.458C257.458 342.808 257.858 343.208 258.354 343.208H262.866V345H258.354C258.05 345 257.746 344.952 257.458 344.856C256.69 344.584 256.082 343.976 255.81 343.208C255.714 342.92 255.666 342.616 255.666 342.312V340.504C255.666 340.2 255.714 339.896 255.81 339.608C256.082 338.84 256.69 338.232 257.458 337.96C257.746 337.864 258.05 337.8 258.354 337.8H260.162C260.466 337.8 260.77 337.864 261.058 337.96C261.826 338.232 262.434 338.84 262.706 339.608C262.802 339.896 262.866 340.2 262.866 340.504V342.312ZM258.354 339.608C257.858 339.608 257.458 340.008 257.458 340.504H261.058C261.058 340.008 260.658 339.608 260.162 339.608H258.354ZM266.354 343.208V345C266.034 345 265.73 344.952 265.458 344.856C264.402 344.472 263.666 343.48 263.666 342.312V335.112H265.458V342.312C265.458 342.808 265.858 343.208 266.354 343.208ZM274.206 339.608C274.302 339.896 274.366 340.2 274.366 340.504V342.312C274.366 342.616 274.302 342.92 274.206 343.208C273.934 343.976 273.326 344.584 272.558 344.856C272.27 344.952 271.966 345 271.662 345H269.854C269.55 345 269.246 344.952 268.958 344.856C268.19 344.584 267.582 343.976 267.31 343.208C267.214 342.92 267.166 342.616 267.166 342.312V340.504C267.166 340.2 267.214 339.896 267.31 339.608C267.582 338.84 268.19 338.232 268.958 337.96C269.246 337.864 269.55 337.8 269.854 337.8H271.662C271.966 337.8 272.27 337.864 272.558 337.96C273.326 338.232 273.934 338.84 274.206 339.608ZM272.558 342.312V340.504C272.558 340.008 272.158 339.608 271.662 339.608H269.854C269.358 339.608 268.958 340.008 268.958 340.504V342.312C268.958 342.808 269.358 343.208 269.854 343.208H271.662C272.158 343.208 272.558 342.808 272.558 342.312ZM282.302 339.624C282.398 339.912 282.462 340.232 282.462 340.536V342.36C282.462 342.68 282.398 343 282.302 343.272C282.03 344.056 281.406 344.68 280.638 344.952C280.35 345.048 280.03 345.096 279.726 345.096H276.99V348.216H275.166V337.8H279.726C280.03 337.8 280.35 337.864 280.638 337.96C281.406 338.232 282.03 338.856 282.302 339.624ZM280.638 342.36V340.536C280.638 340.04 280.222 339.624 279.726 339.624H276.99V343.272H279.726C280.222 343.272 280.638 342.872 280.638 342.36ZM292.251 340.504V344.984H290.443V340.504C290.443 340.008 290.043 339.608 289.547 339.608H288.651V345H286.859V339.608H285.051V345H283.259V337.8H289.547C289.867 337.8 290.171 337.864 290.443 337.96C291.211 338.232 291.819 338.84 292.091 339.608C292.203 339.896 292.251 340.2 292.251 340.504ZM300.256 342.312H294.848C294.848 342.808 295.248 343.208 295.744 343.208H300.256V345H295.744C295.44 345 295.136 344.952 294.848 344.856C294.08 344.584 293.472 343.976 293.2 343.208C293.104 342.92 293.056 342.616 293.056 342.312V340.504C293.056 340.2 293.104 339.896 293.2 339.608C293.472 338.84 294.08 338.232 294.848 337.96C295.136 337.864 295.44 337.8 295.744 337.8H297.552C297.856 337.8 298.16 337.864 298.448 337.96C299.216 338.232 299.824 338.84 300.096 339.608C300.192 339.896 300.256 340.2 300.256 340.504V342.312ZM295.744 339.608C295.248 339.608 294.848 340.008 294.848 340.504H298.448C298.448 340.008 298.048 339.608 297.552 339.608H295.744ZM308.256 340.488V344.984H306.448V340.488C306.448 339.992 306.048 339.592 305.552 339.592H302.848V344.984H301.056V337.784H305.552C305.856 337.784 306.16 337.848 306.448 337.944C307.216 338.216 307.824 338.824 308.096 339.592C308.192 339.864 308.256 340.168 308.256 340.488ZM314.448 343.208V345H312.656C312.336 345 312.032 344.952 311.744 344.856C310.976 344.584 310.368 343.976 310.096 343.208C310 342.92 309.952 342.616 309.952 342.312V339.608H309.056V337.8H309.952V335.112H311.744V337.8H313.552V339.608H311.744V342.312C311.744 342.808 312.144 343.208 312.656 343.208H314.448Z" fill="#9192A8"/>
<g clip-path="url(#clip0_423_113)">
<path d="M830.749 190.599C925.916 207.036 983.523 252.886 973.753 295.404C963.982 337.922 887.088 377.109 791.921 396.615C696.754 416.121 583.316 415.946 480.663 412.308C377.883 408.626 285.761 401.437 235.64 381.931C185.519 362.425 177.398 330.602 188.184 302.505C198.969 274.408 228.534 249.993 278.656 233.555C328.777 217.118 399.454 208.658 501.092 197.919C602.857 187.136 735.582 174.161 830.749 190.599Z" fill="#FF9B00"/>
<path d="M-3.15674 196.494C19.8433 170.369 33.7659 97.4973 31.4046 29.9207C29.0433 -37.656 10.4593 -99.938 -12.5407 -130.94C-35.5407 -161.941 -62.9567 -161.663 -87.7661 -155.88C-112.606 -150.028 -134.87 -138.603 -146.983 -107.601C-159.097 -76.5997 -161.059 -26.0217 -158.453 18.6347C-155.846 63.291 -148.701 102.095 -136.587 128.22C-124.474 154.345 -107.393 167.791 -82.8287 184.859C-58.2341 201.997 -26.1567 222.619 -3.15674 196.494Z" fill="#8787FF"/>
<path d="M327.251 -139.401C232.084 -122.964 174.477 -77.1142 184.247 -34.5958C194.018 7.92249 270.912 47.1095 366.079 66.6153C461.246 86.1212 574.684 85.9458 677.337 82.3077C780.117 78.6257 872.239 71.437 922.36 51.9312C972.481 32.4253 980.602 0.60231 969.816 -27.4949C959.031 -55.592 929.466 -80.0072 879.344 -96.4447C829.223 -112.882 758.546 -121.342 656.908 -132.081C555.143 -142.864 422.418 -155.839 327.251 -139.401Z" fill="#2F1966"/>
<g clip-path="url(#clip1_423_113)">
<path d="M238.635 169.377C238.294 166.572 238.13 163.931 237.631 161.36C236.204 154.057 233.143 147.499 228.566 141.712C221.666 132.994 212.872 127.359 202.216 125.236C199.274 124.649 197.702 123.373 196.055 120.877C188.29 109.101 177.388 103.953 163.72 105.627C150.084 107.295 138.98 118.186 136.114 132.028C136.007 132.546 135.552 133.165 135.091 133.398C124.271 138.92 116.639 147.442 112.378 159.117C109.537 166.9 108.868 174.936 110.276 183.174C110.396 183.888 110.509 184.602 110.616 185.316C110.629 185.398 110.598 185.48 110.56 185.796C108.634 185.442 106.684 185.215 104.802 184.709C88.5593 180.356 76.628 170.425 69.6208 154.644C60.0252 133.038 65.7384 107.604 83.3512 92.5053C92.9278 84.2989 104.032 80.2999 116.532 80.4199C123.962 80.4894 130.956 82.372 137.787 85.4739C154.99 93.295 171.087 91.2481 185.828 79.3523C191.939 74.4183 198.719 70.9879 206.3 69.3011C219.021 66.4709 231.198 68.2082 242.587 74.8984C255.225 82.3215 263.684 93.3076 267.226 107.882C271.721 126.373 267.636 142.812 255.446 156.969C250.844 162.314 245.226 166.3 238.635 169.37V169.377Z" fill="#8B17FF"/>
<path d="M135.243 140.436C135.635 142.793 135.805 145.149 136.455 147.354C137.011 149.236 136.569 150.31 135.307 151.719C129.36 158.327 127.889 166.18 131.09 174.513C134.391 183.111 140.893 187.773 149.908 188.361C151.373 188.455 152.869 188.316 154.333 188.14C168.765 186.409 183.196 184.646 197.621 182.883C208.34 181.576 216.086 173.18 216.465 162.067C216.799 152.3 210.972 144.126 202.69 140.897C201.913 140.594 201.655 140.24 201.579 139.381C201.339 136.684 200.96 133.999 200.588 130.947C203.119 131.775 205.518 132.356 207.765 133.329C220.019 138.636 228.08 147.859 231.407 161.183C235.782 178.689 228.566 196.554 213.599 205.753C208.921 208.627 203.839 210.352 198.422 211.015C185.14 212.639 171.877 214.439 158.563 215.791C146.79 216.985 136.43 213.125 127.801 204.672C120.099 197.136 116.027 187.742 115.636 176.857C115.181 164.177 119.707 153.564 128.804 145.124C130.559 143.494 132.611 142.205 134.536 140.771C134.751 140.607 135.029 140.531 135.231 140.43L135.243 140.436Z" fill="#8B17FF"/>
<path d="M171.769 167.209C156.921 168.972 143.469 158.005 141.6 142.615C139.725 127.194 150.413 113.359 165.576 111.577C180.058 109.878 193.681 121.11 195.436 136.197C197.235 151.656 186.718 165.434 171.776 167.209H171.769Z" fill="#8B17FF"/>
</g>
</g>
<rect x="8.5" y="9.5" width="316" height="265" stroke="#C4C4C4"/>
<path d="M0 0V-5H-5V0H0ZM0 5H325V-5H0V5ZM5 350V0H-5V350H5Z" fill="#C4C4C4" mask="url(#path-1-inside-1_423_113)"/>
<defs>
<clipPath id="clip0_423_113">
<rect x="8" y="9" width="317" height="266" fill="white"/>
</clipPath>
<clipPath id="clip1_423_113">
<rect width="204" height="148" fill="white" transform="translate(65 68)"/>
</clipPath>
</defs>
</svg>
