<svg width="325" height="344" viewBox="0 0 325 344" fill="none" xmlns="http://www.w3.org/2000/svg">
<rect width="325" height="344" fill="#FAF7F5"/>
<g clip-path="url(#clip0_391_101)">
<rect x="2" y="1" width="322" height="273" stroke="#C4C4C4" stroke-width="2"/>
<path d="M51.428 121.098V119.098H50.4169L49.8174 119.912L51.428 121.098ZM58.534 121.098L60.1441 122.284L62.492 119.098H58.534V121.098ZM40.922 145V147H41.9326L42.5321 146.186L40.922 145ZM33.85 145L32.242 146.189L32.8416 147H33.85V145ZM16.272 121.234L15.2797 119.498L13.3258 120.614L14.664 122.423L16.272 121.234ZM16.51 121.098V119.098H15.9789L15.5177 119.362L16.51 121.098ZM23.344 121.098L24.9546 119.912L24.3552 119.098H23.344V121.098ZM37.386 140.172L35.7754 141.358L37.386 143.545L38.9966 141.358L37.386 140.172ZM51.428 123.098H58.534V119.098H51.428V123.098ZM56.9239 119.912L39.3119 143.814L42.5321 146.186L60.1441 122.284L56.9239 119.912ZM40.922 143H33.85V147H40.922V143ZM35.458 143.811L17.88 120.045L14.664 122.423L32.242 146.189L35.458 143.811ZM17.2643 122.97L17.5023 122.834L15.5177 119.362L15.2797 119.498L17.2643 122.97ZM16.51 123.098H23.344V119.098H16.51V123.098ZM21.7334 122.284L35.7754 141.358L38.9966 138.986L24.9546 119.912L21.7334 122.284ZM38.9966 141.358L53.0386 122.284L49.8174 119.912L35.7754 138.986L38.9966 141.358ZM67.1304 145V147H69.1304V145H67.1304ZM61.4184 145H59.4184V147H61.4184V145ZM61.4184 121.234V119.234H59.4184V121.234H61.4184ZM67.1304 121.234H69.1304V119.234H67.1304V121.234ZM67.1304 143H61.4184V147H67.1304V143ZM63.4184 145V121.234H59.4184V145H63.4184ZM61.4184 123.234H67.1304V119.234H61.4184V123.234ZM65.1304 121.234V145H69.1304V121.234H65.1304ZM95.9335 126.912V128.912H97.9335V126.912H95.9335ZM78.2875 126.912V124.912H76.2875V126.912H78.2875ZM78.2875 130.312H76.2875V132.312H78.2875V130.312ZM94.4035 130.312H96.4035V128.312H94.4035V130.312ZM94.4035 136.024V138.024H96.4035V136.024H94.4035ZM78.2875 136.024V134.024H76.2875V136.024H78.2875ZM78.2875 139.39H76.2875V141.39H78.2875V139.39ZM95.9335 139.39H97.9335V137.39H95.9335V139.39ZM95.9335 145.102V147.102H97.9335V145.102H95.9335ZM72.5755 145.102H70.5755V147.102H72.5755V145.102ZM72.5755 121.2V119.2H70.5755V121.2H72.5755ZM95.9335 121.2H97.9335V119.2H95.9335V121.2ZM95.9335 124.912H78.2875V128.912H95.9335V124.912ZM76.2875 126.912V130.312H80.2875V126.912H76.2875ZM78.2875 132.312H94.4035V128.312H78.2875V132.312ZM92.4035 130.312V136.024H96.4035V130.312H92.4035ZM94.4035 134.024H78.2875V138.024H94.4035V134.024ZM76.2875 136.024V139.39H80.2875V136.024H76.2875ZM78.2875 141.39H95.9335V137.39H78.2875V141.39ZM93.9335 139.39V145.102H97.9335V139.39H93.9335ZM95.9335 143.102H72.5755V147.102H95.9335V143.102ZM74.5755 145.102V121.2H70.5755V145.102H74.5755ZM72.5755 123.2H95.9335V119.2H72.5755V123.2ZM93.9335 121.2V126.912H97.9335V121.2H93.9335ZM140.747 121.2V119.2H139.341L138.865 120.524L140.747 121.2ZM146.833 121.2L148.714 121.88L149.683 119.2H146.833V121.2ZM138.231 145V147H139.635L140.112 145.68L138.231 145ZM132.213 145L130.455 145.953L131.022 147H132.213V145ZM122.965 127.932L124.724 126.979L122.962 123.728L121.205 126.982L122.965 127.932ZM113.751 145V147H114.944L115.511 145.95L113.751 145ZM107.699 145L105.829 145.708L106.318 147H107.699V145ZM98.6893 121.2V119.2H95.7937L96.8189 121.908L98.6893 121.2ZM104.775 121.2L106.645 120.49L106.155 119.2H104.775V121.2ZM111.099 137.86L109.23 138.57L110.78 142.655L112.859 138.811L111.099 137.86ZM120.109 121.2V119.2H118.917L118.35 120.249L120.109 121.2ZM125.855 121.2L127.615 120.25L127.048 119.2H125.855V121.2ZM134.797 137.758L133.038 138.708L135.165 142.648L136.679 138.434L134.797 137.758ZM140.747 123.2H146.833V119.2H140.747V123.2ZM144.952 120.52L136.35 144.32L140.112 145.68L148.714 121.88L144.952 120.52ZM138.231 143H132.213V147H138.231V143ZM133.972 144.047L124.724 126.979L121.207 128.885L130.455 145.953L133.972 144.047ZM121.205 126.982L111.991 144.05L115.511 145.95L124.725 128.882L121.205 126.982ZM113.751 143H107.699V147H113.751V143ZM109.57 144.292L100.56 120.492L96.8189 121.908L105.829 145.708L109.57 144.292ZM98.6893 123.2H104.775V119.2H98.6893V123.2ZM102.906 121.91L109.23 138.57L112.969 137.15L106.645 120.49L102.906 121.91ZM112.859 138.811L121.869 122.151L118.35 120.249L109.34 136.909L112.859 138.811ZM120.109 123.2H125.855V119.2H120.109V123.2ZM124.096 122.15L133.038 138.708L136.557 136.808L127.615 120.25L124.096 122.15ZM136.679 138.434L142.629 121.876L138.865 120.524L132.915 137.082L136.679 138.434ZM200.488 121.234V119.234H199.741L199.177 119.724L200.488 121.234ZM206.88 121.234H208.88V119.234H206.88V121.234ZM206.88 145V147H208.88V145H206.88ZM201.168 145H199.168V147H201.168V145ZM201.168 128.204H203.168V123.82L199.857 126.694L201.168 128.204ZM188.554 139.152V141.152H189.301L189.865 140.662L188.554 139.152ZM185.63 139.152L184.319 140.662L184.883 141.152H185.63V139.152ZM173.016 128.204L174.327 126.694L171.016 123.82V128.204H173.016ZM173.016 145V147H175.016V145H173.016ZM167.304 145H165.304V147H167.304V145ZM167.304 121.234V119.234H165.304V121.234H167.304ZM173.696 121.234L175.007 119.724L174.443 119.234H173.696V121.234ZM187.092 132.862L185.781 134.372L187.092 135.51L188.403 134.372L187.092 132.862ZM200.488 123.234H206.88V119.234H200.488V123.234ZM204.88 121.234V145H208.88V121.234H204.88ZM206.88 143H201.168V147H206.88V143ZM203.168 145V128.204H199.168V145H203.168ZM199.857 126.694L187.243 137.642L189.865 140.662L202.479 129.714L199.857 126.694ZM188.554 137.152H185.63V141.152H188.554V137.152ZM186.941 137.642L174.327 126.694L171.705 129.714L184.319 140.662L186.941 137.642ZM171.016 128.204V145H175.016V128.204H171.016ZM173.016 143H167.304V147H173.016V143ZM169.304 145V121.234H165.304V145H169.304ZM167.304 123.234H173.696V119.234H167.304V123.234ZM172.385 122.744L185.781 134.372L188.403 131.352L175.007 119.724L172.385 122.744ZM188.403 134.372L201.799 122.744L199.177 119.724L185.781 131.352L188.403 134.372ZM228.579 123.234C233.172 123.234 237.158 124.465 239.936 126.365C242.711 128.264 244.157 130.718 244.157 133.27H248.157C248.157 129.056 245.743 125.492 242.194 123.064C238.649 120.638 233.845 119.234 228.579 119.234V123.234ZM244.157 133.27C244.157 135.803 242.713 138.258 239.934 140.163C237.155 142.068 233.17 143.306 228.579 143.306V147.306C233.848 147.306 238.651 145.892 242.196 143.462C245.741 141.032 248.157 137.469 248.157 133.27H244.157ZM228.579 143.306C223.988 143.306 220.002 142.068 217.223 140.163C214.444 138.258 213.001 135.803 213.001 133.27H209.001C209.001 137.469 211.416 141.032 214.961 143.462C218.506 145.892 223.31 147.306 228.579 147.306V143.306ZM213.001 133.27C213.001 130.718 214.446 128.264 217.221 126.365C220 124.465 223.985 123.234 228.579 123.234V119.234C223.312 119.234 218.509 120.638 214.963 123.064C211.414 125.492 209.001 129.056 209.001 133.27H213.001ZM228.579 142.002C232.088 142.002 235.404 141.162 237.909 139.739C240.332 138.364 242.445 136.149 242.445 133.27H238.445C238.445 134.029 237.837 135.18 235.934 136.261C234.112 137.295 231.495 138.002 228.579 138.002V142.002ZM242.445 133.27C242.445 130.377 240.336 128.161 237.906 126.786C235.4 125.368 232.084 124.538 228.579 124.538V128.538C231.499 128.538 234.117 129.238 235.936 130.268C237.833 131.341 238.445 132.491 238.445 133.27H242.445ZM228.579 124.538C225.073 124.538 221.758 125.368 219.251 126.786C216.821 128.161 214.713 130.377 214.713 133.27H218.713C218.713 132.491 219.324 131.341 221.221 130.268C223.041 129.238 225.658 128.538 228.579 128.538V124.538ZM214.713 133.27C214.713 136.149 216.825 138.364 219.248 139.739C221.753 141.162 225.069 142.002 228.579 142.002V138.002C225.662 138.002 223.045 137.295 221.223 136.261C219.32 135.18 218.713 134.029 218.713 133.27H214.713ZM281.423 145V147H286.431L282.8 143.55L281.423 145ZM273.331 145L271.955 146.452L272.534 147H273.331V145ZM267.517 139.492L268.892 138.04L268.314 137.492H267.517V139.492ZM255.957 139.492V137.492H253.957V139.492H255.957ZM255.957 145V147H257.957V145H255.957ZM250.245 145H248.245V147H250.245V145ZM250.245 121.234V119.234H248.245V121.234H250.245ZM273.909 137.86L273.007 136.075L270.474 137.355L272.531 139.31L273.909 137.86ZM255.957 126.708V124.708H253.957V126.708H255.957ZM255.957 134.018H253.957V136.018H255.957V134.018ZM281.423 143H273.331V147H281.423V143ZM274.706 143.548L268.892 138.04L266.141 140.944L271.955 146.452L274.706 143.548ZM267.517 137.492C267.516 137.492 267.515 137.492 267.515 137.492C267.514 137.492 267.514 137.492 267.513 137.492C267.512 137.492 267.512 137.492 267.511 137.492C267.511 137.492 267.51 137.492 267.509 137.492C267.509 137.492 267.508 137.492 267.508 137.492C267.507 137.492 267.506 137.492 267.506 137.492C267.505 137.492 267.505 137.492 267.504 137.492C267.503 137.492 267.503 137.492 267.502 137.492C267.502 137.492 267.501 137.492 267.5 137.492C267.5 137.492 267.499 137.492 267.499 137.492C267.498 137.492 267.498 137.492 267.497 137.492C267.496 137.492 267.496 137.492 267.495 137.492C267.495 137.492 267.494 137.492 267.493 137.492C267.493 137.492 267.492 137.492 267.492 137.492C267.491 137.492 267.49 137.492 267.49 137.492C267.489 137.492 267.489 137.492 267.488 137.492C267.487 137.492 267.487 137.492 267.486 137.492C267.486 137.492 267.485 137.492 267.484 137.492C267.484 137.492 267.483 137.492 267.483 137.492C267.482 137.492 267.481 137.492 267.481 137.492C267.48 137.492 267.48 137.492 267.479 137.492C267.479 137.492 267.478 137.492 267.477 137.492C267.477 137.492 267.476 137.492 267.476 137.492C267.475 137.492 267.474 137.492 267.474 137.492C267.473 137.492 267.473 137.492 267.472 137.492C267.471 137.492 267.471 137.492 267.47 137.492C267.47 137.492 267.469 137.492 267.468 137.492C267.468 137.492 267.467 137.492 267.467 137.492C267.466 137.492 267.466 137.492 267.465 137.492C267.464 137.492 267.464 137.492 267.463 137.492C267.463 137.492 267.462 137.492 267.461 137.492C267.461 137.492 267.46 137.492 267.46 137.492C267.459 137.492 267.458 137.492 267.458 137.492C267.457 137.492 267.457 137.492 267.456 137.492C267.455 137.492 267.455 137.492 267.454 137.492C267.454 137.492 267.453 137.492 267.453 137.492C267.452 137.492 267.451 137.492 267.451 137.492C267.45 137.492 267.45 137.492 267.449 137.492C267.448 137.492 267.448 137.492 267.447 137.492C267.447 137.492 267.446 137.492 267.445 137.492C267.445 137.492 267.444 137.492 267.444 137.492C267.443 137.492 267.443 137.492 267.442 137.492C267.441 137.492 267.441 137.492 267.44 137.492C267.44 137.492 267.439 137.492 267.438 137.492C267.438 137.492 267.437 137.492 267.437 137.492C267.436 137.492 267.435 137.492 267.435 137.492C267.434 137.492 267.434 137.492 267.433 137.492C267.433 137.492 267.432 137.492 267.431 137.492C267.431 137.492 267.43 137.492 267.43 137.492C267.429 137.492 267.428 137.492 267.428 137.492C267.427 137.492 267.427 137.492 267.426 137.492C267.426 137.492 267.425 137.492 267.424 137.492C267.424 137.492 267.423 137.492 267.423 137.492C267.422 137.492 267.421 137.492 267.421 137.492C267.42 137.492 267.42 137.492 267.419 137.492C267.418 137.492 267.418 137.492 267.417 137.492C267.417 137.492 267.416 137.492 267.416 137.492C267.415 137.492 267.414 137.492 267.414 137.492C267.413 137.492 267.413 137.492 267.412 137.492C267.411 137.492 267.411 137.492 267.41 137.492C267.41 137.492 267.409 137.492 267.409 137.492C267.408 137.492 267.407 137.492 267.407 137.492C267.406 137.492 267.406 137.492 267.405 137.492C267.404 137.492 267.404 137.492 267.403 137.492C267.403 137.492 267.402 137.492 267.402 137.492C267.401 137.492 267.4 137.492 267.4 137.492C267.399 137.492 267.399 137.492 267.398 137.492C267.397 137.492 267.397 137.492 267.396 137.492C267.396 137.492 267.395 137.492 267.395 137.492C267.394 137.492 267.393 137.492 267.393 137.492C267.392 137.492 267.392 137.492 267.391 137.492C267.39 137.492 267.39 137.492 267.389 137.492C267.389 137.492 267.388 137.492 267.388 137.492C267.387 137.492 267.386 137.492 267.386 137.492C267.385 137.492 267.385 137.492 267.384 137.492C267.384 137.492 267.383 137.492 267.382 137.492C267.382 137.492 267.381 137.492 267.381 137.492C267.38 137.492 267.379 137.492 267.379 137.492C267.378 137.492 267.378 137.492 267.377 137.492C267.377 137.492 267.376 137.492 267.375 137.492C267.375 137.492 267.374 137.492 267.374 137.492C267.373 137.492 267.372 137.492 267.372 137.492C267.371 137.492 267.371 137.492 267.37 137.492C267.37 137.492 267.369 137.492 267.368 137.492C267.368 137.492 267.367 137.492 267.367 137.492C267.366 137.492 267.366 137.492 267.365 137.492C267.364 137.492 267.364 137.492 267.363 137.492C267.363 137.492 267.362 137.492 267.361 137.492C267.361 137.492 267.36 137.492 267.36 137.492C267.359 137.492 267.359 137.492 267.358 137.492C267.357 137.492 267.357 137.492 267.356 137.492C267.356 137.492 267.355 137.492 267.355 137.492C267.354 137.492 267.353 137.492 267.353 137.492C267.352 137.492 267.352 137.492 267.351 137.492C267.35 137.492 267.35 137.492 267.349 137.492C267.349 137.492 267.348 137.492 267.348 137.492C267.347 137.492 267.346 137.492 267.346 137.492C267.345 137.492 267.345 137.492 267.344 137.492C267.344 137.492 267.343 137.492 267.342 137.492C267.342 137.492 267.341 137.492 267.341 137.492C267.34 137.492 267.34 137.492 267.339 137.492C267.338 137.492 267.338 137.492 267.337 137.492C267.337 137.492 267.336 137.492 267.335 137.492C267.335 137.492 267.334 137.492 267.334 137.492C267.333 137.492 267.333 137.492 267.332 137.492C267.331 137.492 267.331 137.492 267.33 137.492C267.33 137.492 267.329 137.492 267.329 137.492C267.328 137.492 267.327 137.492 267.327 137.492C267.326 137.492 267.326 137.492 267.325 137.492C267.325 137.492 267.324 137.492 267.323 137.492C267.323 137.492 267.322 137.492 267.322 137.492C267.321 137.492 267.321 137.492 267.32 137.492C267.319 137.492 267.319 137.492 267.318 137.492C267.318 137.492 267.317 137.492 267.317 137.492C267.316 137.492 267.315 137.492 267.315 137.492C267.314 137.492 267.314 137.492 267.313 137.492C267.312 137.492 267.312 137.492 267.311 137.492C267.311 137.492 267.31 137.492 267.31 137.492C267.309 137.492 267.308 137.492 267.308 137.492C267.307 137.492 267.307 137.492 267.306 137.492C267.306 137.492 267.305 137.492 267.304 137.492C267.304 137.492 267.303 137.492 267.303 137.492C267.302 137.492 267.302 137.492 267.301 137.492C267.3 137.492 267.3 137.492 267.299 137.492C267.299 137.492 267.298 137.492 267.298 137.492C267.297 137.492 267.296 137.492 267.296 137.492C267.295 137.492 267.295 137.492 267.294 137.492C267.294 137.492 267.293 137.492 267.292 137.492C267.292 137.492 267.291 137.492 267.291 137.492C267.29 137.492 267.29 137.492 267.289 137.492C267.288 137.492 267.288 137.492 267.287 137.492C267.287 137.492 267.286 137.492 267.286 137.492C267.285 137.492 267.284 137.492 267.284 137.492C267.283 137.492 267.283 137.492 267.282 137.492C267.282 137.492 267.281 137.492 267.28 137.492C267.28 137.492 267.279 137.492 267.279 137.492C267.278 137.492 267.278 137.492 267.277 137.492C267.276 137.492 267.276 137.492 267.275 137.492C267.275 137.492 267.274 137.492 267.274 137.492C267.273 137.492 267.272 137.492 267.272 137.492C267.271 137.492 267.271 137.492 267.27 137.492C267.27 137.492 267.269 137.492 267.268 137.492C267.268 137.492 267.267 137.492 267.267 137.492C267.266 137.492 267.266 137.492 267.265 137.492C267.264 137.492 267.264 137.492 267.263 137.492C267.263 137.492 267.262 137.492 267.262 137.492C267.261 137.492 267.26 137.492 267.26 137.492C267.259 137.492 267.259 137.492 267.258 137.492C267.258 137.492 267.257 137.492 267.256 137.492C267.256 137.492 267.255 137.492 267.255 137.492C267.254 137.492 267.254 137.492 267.253 137.492C267.252 137.492 267.252 137.492 267.251 137.492C267.251 137.492 267.25 137.492 267.25 137.492C267.249 137.492 267.248 137.492 267.248 137.492C267.247 137.492 267.247 137.492 267.246 137.492C267.246 137.492 267.245 137.492 267.244 137.492C267.244 137.492 267.243 137.492 267.243 137.492C267.242 137.492 267.242 137.492 267.241 137.492C267.24 137.492 267.24 137.492 267.239 137.492C267.239 137.492 267.238 137.492 267.238 137.492C267.237 137.492 267.236 137.492 267.236 137.492C267.235 137.492 267.235 137.492 267.234 137.492C267.234 137.492 267.233 137.492 267.232 137.492C267.232 137.492 267.231 137.492 267.231 137.492C267.23 137.492 267.23 137.492 267.229 137.492C267.229 137.492 267.228 137.492 267.227 137.492C267.227 137.492 267.226 137.492 267.226 137.492C267.225 137.492 267.225 137.492 267.224 137.492C267.223 137.492 267.223 137.492 267.222 137.492C267.222 137.492 267.221 137.492 267.221 137.492C267.22 137.492 267.219 137.492 267.219 137.492C267.218 137.492 267.218 137.492 267.217 137.492C267.217 137.492 267.216 137.492 267.215 137.492C267.215 137.492 267.214 137.492 267.214 137.492C267.213 137.492 267.213 137.492 267.212 137.492C267.211 137.492 267.211 137.492 267.21 137.492C267.21 137.492 267.209 137.492 267.209 137.492C267.208 137.492 267.207 137.492 267.207 137.492C267.206 137.492 267.206 137.492 267.205 137.492C267.205 137.492 267.204 137.492 267.204 137.492C267.203 137.492 267.202 137.492 267.202 137.492C267.201 137.492 267.201 137.492 267.2 137.492C267.2 137.492 267.199 137.492 267.198 137.492C267.198 137.492 267.197 137.492 267.197 137.492C267.196 137.492 267.196 137.492 267.195 137.492C267.194 137.492 267.194 137.492 267.193 137.492C267.193 137.492 267.192 137.492 267.192 137.492C267.191 137.492 267.19 137.492 267.19 137.492C267.189 137.492 267.189 137.492 267.188 137.492C267.188 137.492 267.187 137.492 267.187 137.492C267.186 137.492 267.185 137.492 267.185 137.492C267.184 137.492 267.184 137.492 267.183 137.492C267.183 137.492 267.182 137.492 267.181 137.492C267.181 137.492 267.18 137.492 267.18 137.492C267.179 137.492 267.179 137.492 267.178 137.492C267.177 137.492 267.177 137.492 267.176 137.492C267.176 137.492 267.175 137.492 267.175 137.492C267.174 137.492 267.173 137.492 267.173 137.492C267.172 137.492 267.172 137.492 267.171 137.492C267.171 137.492 267.17 137.492 267.17 137.492C267.169 137.492 267.168 137.492 267.168 137.492C267.167 137.492 267.167 137.492 267.166 137.492C267.166 137.492 267.165 137.492 267.164 137.492C267.164 137.492 267.163 137.492 267.163 137.492C267.162 137.492 267.162 137.492 267.161 137.492C267.16 137.492 267.16 137.492 267.159 137.492C267.159 137.492 267.158 137.492 267.158 137.492C267.157 137.492 267.156 137.492 267.156 137.492C267.155 137.492 267.155 137.492 267.154 137.492C267.154 137.492 267.153 137.492 267.153 137.492C267.152 137.492 267.151 137.492 267.151 137.492C267.15 137.492 267.15 137.492 267.149 137.492C267.149 137.492 267.148 137.492 267.147 137.492C267.147 137.492 267.146 137.492 267.146 137.492C267.145 137.492 267.145 137.492 267.144 137.492C267.143 137.492 267.143 137.492 267.142 137.492C267.142 137.492 267.141 137.492 267.141 137.492C267.14 137.492 267.14 137.492 267.139 137.492C267.138 137.492 267.138 137.492 267.137 137.492C267.137 137.492 267.136 137.492 267.136 137.492C267.135 137.492 267.134 137.492 267.134 137.492C267.133 137.492 267.133 137.492 267.132 137.492C267.132 137.492 267.131 137.492 267.13 137.492C267.13 137.492 267.129 137.492 267.129 137.492C267.128 137.492 267.128 137.492 267.127 137.492C267.127 137.492 267.126 137.492 267.125 137.492C267.125 137.492 267.124 137.492 267.124 137.492C267.123 137.492 267.123 137.492 267.122 137.492C267.121 137.492 267.121 137.492 267.12 137.492C267.12 137.492 267.119 137.492 267.119 137.492C267.118 137.492 267.118 137.492 267.117 137.492C267.116 137.492 267.116 137.492 267.115 137.492C267.115 137.492 267.114 137.492 267.114 137.492C267.113 137.492 267.112 137.492 267.112 137.492C267.111 137.492 267.111 137.492 267.11 137.492C267.11 137.492 267.109 137.492 267.108 137.492C267.108 137.492 267.107 137.492 267.107 137.492C267.106 137.492 267.106 137.492 267.105 137.492C267.105 137.492 267.104 137.492 267.103 137.492C267.103 137.492 267.102 137.492 267.102 137.492C267.101 137.492 267.101 137.492 267.1 137.492C267.099 137.492 267.099 137.492 267.098 137.492C267.098 137.492 267.097 137.492 267.097 137.492C267.096 137.492 267.095 137.492 267.095 137.492C267.094 137.492 267.094 137.492 267.093 137.492C267.093 137.492 267.092 137.492 267.092 137.492C267.091 137.492 267.09 137.492 267.09 137.492C267.089 137.492 267.089 137.492 267.088 137.492C267.088 137.492 267.087 137.492 267.086 137.492C267.086 137.492 267.085 137.492 267.085 137.492C267.084 137.492 267.084 137.492 267.083 137.492C267.082 137.492 267.082 137.492 267.081 137.492C267.081 137.492 267.08 137.492 267.08 137.492C267.079 137.492 267.079 137.492 267.078 137.492C267.077 137.492 267.077 137.492 267.076 137.492C267.076 137.492 267.075 137.492 267.075 137.492C267.074 137.492 267.073 137.492 267.073 137.492C267.072 137.492 267.072 137.492 267.071 137.492C267.071 137.492 267.07 137.492 267.07 137.492C267.069 137.492 267.068 137.492 267.068 137.492C267.067 137.492 267.067 137.492 267.066 137.492C267.066 137.492 267.065 137.492 267.064 137.492C267.064 137.492 267.063 137.492 267.063 137.492C267.062 137.492 267.062 137.492 267.061 137.492C267.06 137.492 267.06 137.492 267.059 137.492C267.059 137.492 267.058 137.492 267.058 137.492C267.057 137.492 267.057 137.492 267.056 137.492C267.055 137.492 267.055 137.492 267.054 137.492C267.054 137.492 267.053 137.492 267.053 137.492C267.052 137.492 267.051 137.492 267.051 137.492C267.05 137.492 267.05 137.492 267.049 137.492C267.049 137.492 267.048 137.492 267.047 137.492C267.047 137.492 267.046 137.492 267.046 137.492C267.045 137.492 267.045 137.492 267.044 137.492C267.044 137.492 267.043 137.492 267.042 137.492C267.042 137.492 267.041 137.492 267.041 137.492C267.04 137.492 267.04 137.492 267.039 137.492C267.038 137.492 267.038 137.492 267.037 137.492C267.037 137.492 267.036 137.492 267.036 137.492C267.035 137.492 267.035 137.492 267.034 137.492C267.033 137.492 267.033 137.492 267.032 137.492C267.032 137.492 267.031 137.492 267.031 137.492C267.03 137.492 267.029 137.492 267.029 137.492C267.028 137.492 267.028 137.492 267.027 137.492C267.027 137.492 267.026 137.492 267.025 137.492C267.025 137.492 267.024 137.492 267.024 137.492C267.023 137.492 267.023 137.492 267.022 137.492C267.022 137.492 267.021 137.492 267.02 137.492C267.02 137.492 267.019 137.492 267.019 137.492C267.018 137.492 267.018 137.492 267.017 137.492C267.016 137.492 267.016 137.492 267.015 137.492C267.015 137.492 267.014 137.492 267.014 137.492C267.013 137.492 267.012 137.492 267.012 137.492C267.011 137.492 267.011 137.492 267.01 137.492C267.01 137.492 267.009 137.492 267.009 137.492C267.008 137.492 267.007 137.492 267.007 137.492C267.006 137.492 267.006 137.492 267.005 137.492C267.005 137.492 267.004 137.492 267.003 137.492C267.003 137.492 267.002 137.492 267.002 137.492C267.001 137.492 267.001 137.492 267 137.492C266.999 137.492 266.999 137.492 266.998 137.492C266.998 137.492 266.997 137.492 266.997 137.492C266.996 137.492 266.996 137.492 266.995 137.492C266.994 137.492 266.994 137.492 266.993 137.492C266.993 137.492 266.992 137.492 266.992 137.492C266.991 137.492 266.99 137.492 266.99 137.492C266.989 137.492 266.989 137.492 266.988 137.492C266.988 137.492 266.987 137.492 266.986 137.492C266.986 137.492 266.985 137.492 266.985 137.492C266.984 137.492 266.984 137.492 266.983 137.492C266.983 137.492 266.982 137.492 266.981 137.492C266.981 137.492 266.98 137.492 266.98 137.492C266.979 137.492 266.979 137.492 266.978 137.492C266.977 137.492 266.977 137.492 266.976 137.492C266.976 137.492 266.975 137.492 266.975 137.492C266.974 137.492 266.973 137.492 266.973 137.492C266.972 137.492 266.972 137.492 266.971 137.492C266.971 137.492 266.97 137.492 266.969 137.492C266.969 137.492 266.968 137.492 266.968 137.492C266.967 137.492 266.967 137.492 266.966 137.492C266.966 137.492 266.965 137.492 266.964 137.492C266.964 137.492 266.963 137.492 266.963 137.492C266.962 137.492 266.962 137.492 266.961 137.492C266.96 137.492 266.96 137.492 266.959 137.492C266.959 137.492 266.958 137.492 266.958 137.492C266.957 137.492 266.956 137.492 266.956 137.492C266.955 137.492 266.955 137.492 266.954 137.492C266.954 137.492 266.953 137.492 266.952 137.492C266.952 137.492 266.951 137.492 266.951 137.492C266.95 137.492 266.95 137.492 266.949 137.492C266.949 137.492 266.948 137.492 266.947 137.492C266.947 137.492 266.946 137.492 266.946 137.492C266.945 137.492 266.945 137.492 266.944 137.492C266.943 137.492 266.943 137.492 266.942 137.492C266.942 137.492 266.941 137.492 266.941 137.492C266.94 137.492 266.939 137.492 266.939 137.492C266.938 137.492 266.938 137.492 266.937 137.492C266.937 137.492 266.936 137.492 266.935 137.492C266.935 137.492 266.934 137.492 266.934 137.492C266.933 137.492 266.933 137.492 266.932 137.492C266.931 137.492 266.931 137.492 266.93 137.492C266.93 137.492 266.929 137.492 266.929 137.492C266.928 137.492 266.928 137.492 266.927 137.492C266.926 137.492 266.926 137.492 266.925 137.492C266.925 137.492 266.924 137.492 266.924 137.492C266.923 137.492 266.922 137.492 266.922 137.492C266.921 137.492 266.921 137.492 266.92 137.492C266.92 137.492 266.919 137.492 266.918 137.492C266.918 137.492 266.917 137.492 266.917 137.492C266.916 137.492 266.916 137.492 266.915 137.492C266.914 137.492 266.914 137.492 266.913 137.492C266.913 137.492 266.912 137.492 266.912 137.492C266.911 137.492 266.91 137.492 266.91 137.492C266.909 137.492 266.909 137.492 266.908 137.492C266.908 137.492 266.907 137.492 266.906 137.492C266.906 137.492 266.905 137.492 266.905 137.492C266.904 137.492 266.904 137.492 266.903 137.492C266.902 137.492 266.902 137.492 266.901 137.492C266.901 137.492 266.9 137.492 266.9 137.492C266.899 137.492 266.898 137.492 266.898 137.492C266.897 137.492 266.897 137.492 266.896 137.492C266.896 137.492 266.895 137.492 266.894 137.492C266.894 137.492 266.893 137.492 266.893 137.492C266.892 137.492 266.892 137.492 266.891 137.492C266.891 137.492 266.89 137.492 266.889 137.492C266.889 137.492 266.888 137.492 266.888 137.492C266.887 137.492 266.887 137.492 266.886 137.492C266.885 137.492 266.885 137.492 266.884 137.492C266.884 137.492 266.883 137.492 266.883 137.492C266.882 137.492 266.881 137.492 266.881 137.492C266.88 137.492 266.88 137.492 266.879 137.492C266.879 137.492 266.878 137.492 266.877 137.492C266.877 137.492 266.876 137.492 266.876 137.492C266.875 137.492 266.875 137.492 266.874 137.492C266.873 137.492 266.873 137.492 266.872 137.492C266.872 137.492 266.871 137.492 266.871 137.492C266.87 137.492 266.869 137.492 266.869 137.492C266.868 137.492 266.868 137.492 266.867 137.492C266.867 137.492 266.866 137.492 266.865 137.492C266.865 137.492 266.864 137.492 266.864 137.492C266.863 137.492 266.863 137.492 266.862 137.492C266.861 137.492 266.861 137.492 266.86 137.492C266.86 137.492 266.859 137.492 266.859 137.492C266.858 137.492 266.857 137.492 266.857 137.492C266.856 137.492 266.856 137.492 266.855 137.492C266.854 137.492 266.854 137.492 266.853 137.492C266.853 137.492 266.852 137.492 266.852 137.492C266.851 137.492 266.85 137.492 266.85 137.492C266.849 137.492 266.849 137.492 266.848 137.492C266.848 137.492 266.847 137.492 266.846 137.492C266.846 137.492 266.845 137.492 266.845 137.492C266.844 137.492 266.844 137.492 266.843 137.492C266.842 137.492 266.842 137.492 266.841 137.492C266.841 137.492 266.84 137.492 266.84 137.492C266.839 137.492 266.838 137.492 266.838 137.492C266.837 137.492 266.837 137.492 266.836 137.492C266.836 137.492 266.835 137.492 266.834 137.492C266.834 137.492 266.833 137.492 266.833 137.492C266.832 137.492 266.832 137.492 266.831 137.492C266.83 137.492 266.83 137.492 266.829 137.492C266.829 137.492 266.828 137.492 266.828 137.492C266.827 137.492 266.826 137.492 266.826 137.492C266.825 137.492 266.825 137.492 266.824 137.492C266.823 137.492 266.823 137.492 266.822 137.492C266.822 137.492 266.821 137.492 266.821 137.492C266.82 137.492 266.819 137.492 266.819 137.492C266.818 137.492 266.818 137.492 266.817 137.492C266.817 137.492 266.816 137.492 266.815 137.492C266.815 137.492 266.814 137.492 266.814 137.492C266.813 137.492 266.813 137.492 266.812 137.492C266.811 137.492 266.811 137.492 266.81 137.492C266.81 137.492 266.809 137.492 266.809 137.492C266.808 137.492 266.807 137.492 266.807 137.492C266.806 137.492 266.806 137.492 266.805 137.492C266.804 137.492 266.804 137.492 266.803 137.492C266.803 137.492 266.802 137.492 266.802 137.492C266.801 137.492 266.8 137.492 266.8 137.492C266.799 137.492 266.799 137.492 266.798 137.492C266.798 137.492 266.797 137.492 266.796 137.492C266.796 137.492 266.795 137.492 266.795 137.492C266.794 137.492 266.793 137.492 266.793 137.492C266.792 137.492 266.792 137.492 266.791 137.492C266.791 137.492 266.79 137.492 266.789 137.492C266.789 137.492 266.788 137.492 266.788 137.492C266.787 137.492 266.787 137.492 266.786 137.492C266.785 137.492 266.785 137.492 266.784 137.492C266.784 137.492 266.783 137.492 266.782 137.492C266.782 137.492 266.781 137.492 266.781 137.492C266.78 137.492 266.78 137.492 266.779 137.492C266.778 137.492 266.778 137.492 266.777 137.492C266.777 137.492 266.776 137.492 266.776 137.492C266.775 137.492 266.774 137.492 266.774 137.492C266.773 137.492 266.773 137.492 266.772 137.492C266.771 137.492 266.771 137.492 266.77 137.492C266.77 137.492 266.769 137.492 266.769 137.492C266.768 137.492 266.767 137.492 266.767 137.492C266.766 137.492 266.766 137.492 266.765 137.492C266.765 137.492 266.764 137.492 266.763 137.492C266.763 137.492 266.762 137.492 266.762 137.492C266.761 137.492 266.76 137.492 266.76 137.492C266.759 137.492 266.759 137.492 266.758 137.492C266.758 137.492 266.757 137.492 266.756 137.492C266.756 137.492 266.755 137.492 266.755 137.492C266.754 137.492 266.753 137.492 266.753 137.492C266.752 137.492 266.752 137.492 266.751 137.492C266.751 137.492 266.75 137.492 266.749 137.492C266.749 137.492 266.748 137.492 266.748 137.492C266.747 137.492 266.746 137.492 266.746 137.492C266.745 137.492 266.745 137.492 266.744 137.492C266.744 137.492 266.743 137.492 266.742 137.492C266.742 137.492 266.741 137.492 266.741 137.492C266.74 137.492 266.739 137.492 266.739 137.492C266.738 137.492 266.738 137.492 266.737 137.492C266.737 137.492 266.736 137.492 266.735 137.492C266.735 137.492 266.734 137.492 266.734 137.492C266.733 137.492 266.732 137.492 266.732 137.492C266.731 137.492 266.731 137.492 266.73 137.492C266.73 137.492 266.729 137.492 266.728 137.492C266.728 137.492 266.727 137.492 266.727 137.492C266.726 137.492 266.725 137.492 266.725 137.492C266.724 137.492 266.724 137.492 266.723 137.492C266.723 137.492 266.722 137.492 266.721 137.492C266.721 137.492 266.72 137.492 266.72 137.492C266.719 137.492 266.718 137.492 266.718 137.492C266.717 137.492 266.717 137.492 266.716 137.492C266.715 137.492 266.715 137.492 266.714 137.492C266.714 137.492 266.713 137.492 266.713 137.492C266.712 137.492 266.711 137.492 266.711 137.492C266.71 137.492 266.71 137.492 266.709 137.492C266.708 137.492 266.708 137.492 266.707 137.492C266.707 137.492 266.706 137.492 266.705 137.492C266.705 137.492 266.704 137.492 266.704 137.492C266.703 137.492 266.703 137.492 266.702 137.492C266.701 137.492 266.701 137.492 266.7 137.492C266.7 137.492 266.699 137.492 266.698 137.492C266.698 137.492 266.697 137.492 266.697 137.492C266.696 137.492 266.695 137.492 266.695 137.492C266.694 137.492 266.694 137.492 266.693 137.492C266.693 137.492 266.692 137.492 266.691 137.492C266.691 137.492 266.69 137.492 266.69 137.492C266.689 137.492 266.688 137.492 266.688 137.492C266.687 137.492 266.687 137.492 266.686 137.492C266.685 137.492 266.685 137.492 266.684 137.492C266.684 137.492 266.683 137.492 266.683 137.492C266.682 137.492 266.681 137.492 266.681 137.492C266.68 137.492 266.68 137.492 266.679 137.492C266.678 137.492 266.678 137.492 266.677 137.492C266.677 137.492 266.676 137.492 266.675 137.492C266.675 137.492 266.674 137.492 266.674 137.492C266.673 137.492 266.672 137.492 266.672 137.492C266.671 137.492 266.671 137.492 266.67 137.492C266.669 137.492 266.669 137.492 266.668 137.492C266.668 137.492 266.667 137.492 266.667 137.492C266.666 137.492 266.665 137.492 266.665 137.492C266.664 137.492 266.664 137.492 266.663 137.492C266.662 137.492 266.662 137.492 266.661 137.492C266.661 137.492 266.66 137.492 266.659 137.492C266.659 137.492 266.658 137.492 266.658 137.492C266.657 137.492 266.656 137.492 266.656 137.492C266.655 137.492 266.655 137.492 266.654 137.492C266.653 137.492 266.653 137.492 266.652 137.492C266.652 137.492 266.651 137.492 266.65 137.492C266.65 137.492 266.649 137.492 266.649 137.492C266.648 137.492 266.648 137.492 266.647 137.492C266.646 137.492 266.646 137.492 266.645 137.492C266.645 137.492 266.644 137.492 266.643 137.492C266.643 137.492 266.642 137.492 266.642 137.492C266.641 137.492 266.64 137.492 266.64 137.492C266.639 137.492 266.639 137.492 266.638 137.492C266.637 137.492 266.637 137.492 266.636 137.492C266.636 137.492 266.635 137.492 266.634 137.492C266.634 137.492 266.633 137.492 266.633 137.492V141.492C266.633 141.492 266.634 141.492 266.634 141.492C266.635 141.492 266.636 141.492 266.636 141.492C266.637 141.492 266.637 141.492 266.638 141.492C266.639 141.492 266.639 141.492 266.64 141.492C266.64 141.492 266.641 141.492 266.642 141.492C266.642 141.492 266.643 141.492 266.643 141.492C266.644 141.492 266.645 141.492 266.645 141.492C266.646 141.492 266.646 141.492 266.647 141.492C266.648 141.492 266.648 141.492 266.649 141.492C266.649 141.492 266.65 141.492 266.65 141.492C266.651 141.492 266.652 141.492 266.652 141.492C266.653 141.492 266.653 141.492 266.654 141.492C266.655 141.492 266.655 141.492 266.656 141.492C266.656 141.492 266.657 141.492 266.658 141.492C266.658 141.492 266.659 141.492 266.659 141.492C266.66 141.492 266.661 141.492 266.661 141.492C266.662 141.492 266.662 141.492 266.663 141.492C266.664 141.492 266.664 141.492 266.665 141.492C266.665 141.492 266.666 141.492 266.667 141.492C266.667 141.492 266.668 141.492 266.668 141.492C266.669 141.492 266.669 141.492 266.67 141.492C266.671 141.492 266.671 141.492 266.672 141.492C266.672 141.492 266.673 141.492 266.674 141.492C266.674 141.492 266.675 141.492 266.675 141.492C266.676 141.492 266.677 141.492 266.677 141.492C266.678 141.492 266.678 141.492 266.679 141.492C266.68 141.492 266.68 141.492 266.681 141.492C266.681 141.492 266.682 141.492 266.683 141.492C266.683 141.492 266.684 141.492 266.684 141.492C266.685 141.492 266.685 141.492 266.686 141.492C266.687 141.492 266.687 141.492 266.688 141.492C266.688 141.492 266.689 141.492 266.69 141.492C266.69 141.492 266.691 141.492 266.691 141.492C266.692 141.492 266.693 141.492 266.693 141.492C266.694 141.492 266.694 141.492 266.695 141.492C266.695 141.492 266.696 141.492 266.697 141.492C266.697 141.492 266.698 141.492 266.698 141.492C266.699 141.492 266.7 141.492 266.7 141.492C266.701 141.492 266.701 141.492 266.702 141.492C266.703 141.492 266.703 141.492 266.704 141.492C266.704 141.492 266.705 141.492 266.705 141.492C266.706 141.492 266.707 141.492 266.707 141.492C266.708 141.492 266.708 141.492 266.709 141.492C266.71 141.492 266.71 141.492 266.711 141.492C266.711 141.492 266.712 141.492 266.713 141.492C266.713 141.492 266.714 141.492 266.714 141.492C266.715 141.492 266.715 141.492 266.716 141.492C266.717 141.492 266.717 141.492 266.718 141.492C266.718 141.492 266.719 141.492 266.72 141.492C266.72 141.492 266.721 141.492 266.721 141.492C266.722 141.492 266.723 141.492 266.723 141.492C266.724 141.492 266.724 141.492 266.725 141.492C266.725 141.492 266.726 141.492 266.727 141.492C266.727 141.492 266.728 141.492 266.728 141.492C266.729 141.492 266.73 141.492 266.73 141.492C266.731 141.492 266.731 141.492 266.732 141.492C266.732 141.492 266.733 141.492 266.734 141.492C266.734 141.492 266.735 141.492 266.735 141.492C266.736 141.492 266.737 141.492 266.737 141.492C266.738 141.492 266.738 141.492 266.739 141.492C266.739 141.492 266.74 141.492 266.741 141.492C266.741 141.492 266.742 141.492 266.742 141.492C266.743 141.492 266.744 141.492 266.744 141.492C266.745 141.492 266.745 141.492 266.746 141.492C266.746 141.492 266.747 141.492 266.748 141.492C266.748 141.492 266.749 141.492 266.749 141.492C266.75 141.492 266.751 141.492 266.751 141.492C266.752 141.492 266.752 141.492 266.753 141.492C266.753 141.492 266.754 141.492 266.755 141.492C266.755 141.492 266.756 141.492 266.756 141.492C266.757 141.492 266.758 141.492 266.758 141.492C266.759 141.492 266.759 141.492 266.76 141.492C266.76 141.492 266.761 141.492 266.762 141.492C266.762 141.492 266.763 141.492 266.763 141.492C266.764 141.492 266.765 141.492 266.765 141.492C266.766 141.492 266.766 141.492 266.767 141.492C266.767 141.492 266.768 141.492 266.769 141.492C266.769 141.492 266.77 141.492 266.77 141.492C266.771 141.492 266.771 141.492 266.772 141.492C266.773 141.492 266.773 141.492 266.774 141.492C266.774 141.492 266.775 141.492 266.776 141.492C266.776 141.492 266.777 141.492 266.777 141.492C266.778 141.492 266.778 141.492 266.779 141.492C266.78 141.492 266.78 141.492 266.781 141.492C266.781 141.492 266.782 141.492 266.782 141.492C266.783 141.492 266.784 141.492 266.784 141.492C266.785 141.492 266.785 141.492 266.786 141.492C266.787 141.492 266.787 141.492 266.788 141.492C266.788 141.492 266.789 141.492 266.789 141.492C266.79 141.492 266.791 141.492 266.791 141.492C266.792 141.492 266.792 141.492 266.793 141.492C266.793 141.492 266.794 141.492 266.795 141.492C266.795 141.492 266.796 141.492 266.796 141.492C266.797 141.492 266.798 141.492 266.798 141.492C266.799 141.492 266.799 141.492 266.8 141.492C266.8 141.492 266.801 141.492 266.802 141.492C266.802 141.492 266.803 141.492 266.803 141.492C266.804 141.492 266.804 141.492 266.805 141.492C266.806 141.492 266.806 141.492 266.807 141.492C266.807 141.492 266.808 141.492 266.809 141.492C266.809 141.492 266.81 141.492 266.81 141.492C266.811 141.492 266.811 141.492 266.812 141.492C266.813 141.492 266.813 141.492 266.814 141.492C266.814 141.492 266.815 141.492 266.815 141.492C266.816 141.492 266.817 141.492 266.817 141.492C266.818 141.492 266.818 141.492 266.819 141.492C266.819 141.492 266.82 141.492 266.821 141.492C266.821 141.492 266.822 141.492 266.822 141.492C266.823 141.492 266.823 141.492 266.824 141.492C266.825 141.492 266.825 141.492 266.826 141.492C266.826 141.492 266.827 141.492 266.828 141.492C266.828 141.492 266.829 141.492 266.829 141.492C266.83 141.492 266.83 141.492 266.831 141.492C266.832 141.492 266.832 141.492 266.833 141.492C266.833 141.492 266.834 141.492 266.834 141.492C266.835 141.492 266.836 141.492 266.836 141.492C266.837 141.492 266.837 141.492 266.838 141.492C266.838 141.492 266.839 141.492 266.84 141.492C266.84 141.492 266.841 141.492 266.841 141.492C266.842 141.492 266.842 141.492 266.843 141.492C266.844 141.492 266.844 141.492 266.845 141.492C266.845 141.492 266.846 141.492 266.846 141.492C266.847 141.492 266.848 141.492 266.848 141.492C266.849 141.492 266.849 141.492 266.85 141.492C266.85 141.492 266.851 141.492 266.852 141.492C266.852 141.492 266.853 141.492 266.853 141.492C266.854 141.492 266.854 141.492 266.855 141.492C266.856 141.492 266.856 141.492 266.857 141.492C266.857 141.492 266.858 141.492 266.859 141.492C266.859 141.492 266.86 141.492 266.86 141.492C266.861 141.492 266.861 141.492 266.862 141.492C266.863 141.492 266.863 141.492 266.864 141.492C266.864 141.492 266.865 141.492 266.865 141.492C266.866 141.492 266.867 141.492 266.867 141.492C266.868 141.492 266.868 141.492 266.869 141.492C266.869 141.492 266.87 141.492 266.871 141.492C266.871 141.492 266.872 141.492 266.872 141.492C266.873 141.492 266.873 141.492 266.874 141.492C266.875 141.492 266.875 141.492 266.876 141.492C266.876 141.492 266.877 141.492 266.877 141.492C266.878 141.492 266.879 141.492 266.879 141.492C266.88 141.492 266.88 141.492 266.881 141.492C266.881 141.492 266.882 141.492 266.883 141.492C266.883 141.492 266.884 141.492 266.884 141.492C266.885 141.492 266.885 141.492 266.886 141.492C266.887 141.492 266.887 141.492 266.888 141.492C266.888 141.492 266.889 141.492 266.889 141.492C266.89 141.492 266.891 141.492 266.891 141.492C266.892 141.492 266.892 141.492 266.893 141.492C266.893 141.492 266.894 141.492 266.894 141.492C266.895 141.492 266.896 141.492 266.896 141.492C266.897 141.492 266.897 141.492 266.898 141.492C266.898 141.492 266.899 141.492 266.9 141.492C266.9 141.492 266.901 141.492 266.901 141.492C266.902 141.492 266.902 141.492 266.903 141.492C266.904 141.492 266.904 141.492 266.905 141.492C266.905 141.492 266.906 141.492 266.906 141.492C266.907 141.492 266.908 141.492 266.908 141.492C266.909 141.492 266.909 141.492 266.91 141.492C266.91 141.492 266.911 141.492 266.912 141.492C266.912 141.492 266.913 141.492 266.913 141.492C266.914 141.492 266.914 141.492 266.915 141.492C266.916 141.492 266.916 141.492 266.917 141.492C266.917 141.492 266.918 141.492 266.918 141.492C266.919 141.492 266.92 141.492 266.92 141.492C266.921 141.492 266.921 141.492 266.922 141.492C266.922 141.492 266.923 141.492 266.924 141.492C266.924 141.492 266.925 141.492 266.925 141.492C266.926 141.492 266.926 141.492 266.927 141.492C266.928 141.492 266.928 141.492 266.929 141.492C266.929 141.492 266.93 141.492 266.93 141.492C266.931 141.492 266.931 141.492 266.932 141.492C266.933 141.492 266.933 141.492 266.934 141.492C266.934 141.492 266.935 141.492 266.935 141.492C266.936 141.492 266.937 141.492 266.937 141.492C266.938 141.492 266.938 141.492 266.939 141.492C266.939 141.492 266.94 141.492 266.941 141.492C266.941 141.492 266.942 141.492 266.942 141.492C266.943 141.492 266.943 141.492 266.944 141.492C266.945 141.492 266.945 141.492 266.946 141.492C266.946 141.492 266.947 141.492 266.947 141.492C266.948 141.492 266.949 141.492 266.949 141.492C266.95 141.492 266.95 141.492 266.951 141.492C266.951 141.492 266.952 141.492 266.952 141.492C266.953 141.492 266.954 141.492 266.954 141.492C266.955 141.492 266.955 141.492 266.956 141.492C266.956 141.492 266.957 141.492 266.958 141.492C266.958 141.492 266.959 141.492 266.959 141.492C266.96 141.492 266.96 141.492 266.961 141.492C266.962 141.492 266.962 141.492 266.963 141.492C266.963 141.492 266.964 141.492 266.964 141.492C266.965 141.492 266.966 141.492 266.966 141.492C266.967 141.492 266.967 141.492 266.968 141.492C266.968 141.492 266.969 141.492 266.969 141.492C266.97 141.492 266.971 141.492 266.971 141.492C266.972 141.492 266.972 141.492 266.973 141.492C266.973 141.492 266.974 141.492 266.975 141.492C266.975 141.492 266.976 141.492 266.976 141.492C266.977 141.492 266.977 141.492 266.978 141.492C266.979 141.492 266.979 141.492 266.98 141.492C266.98 141.492 266.981 141.492 266.981 141.492C266.982 141.492 266.983 141.492 266.983 141.492C266.984 141.492 266.984 141.492 266.985 141.492C266.985 141.492 266.986 141.492 266.986 141.492C266.987 141.492 266.988 141.492 266.988 141.492C266.989 141.492 266.989 141.492 266.99 141.492C266.99 141.492 266.991 141.492 266.992 141.492C266.992 141.492 266.993 141.492 266.993 141.492C266.994 141.492 266.994 141.492 266.995 141.492C266.996 141.492 266.996 141.492 266.997 141.492C266.997 141.492 266.998 141.492 266.998 141.492C266.999 141.492 266.999 141.492 267 141.492C267.001 141.492 267.001 141.492 267.002 141.492C267.002 141.492 267.003 141.492 267.003 141.492C267.004 141.492 267.005 141.492 267.005 141.492C267.006 141.492 267.006 141.492 267.007 141.492C267.007 141.492 267.008 141.492 267.009 141.492C267.009 141.492 267.01 141.492 267.01 141.492C267.011 141.492 267.011 141.492 267.012 141.492C267.012 141.492 267.013 141.492 267.014 141.492C267.014 141.492 267.015 141.492 267.015 141.492C267.016 141.492 267.016 141.492 267.017 141.492C267.018 141.492 267.018 141.492 267.019 141.492C267.019 141.492 267.02 141.492 267.02 141.492C267.021 141.492 267.022 141.492 267.022 141.492C267.023 141.492 267.023 141.492 267.024 141.492C267.024 141.492 267.025 141.492 267.025 141.492C267.026 141.492 267.027 141.492 267.027 141.492C267.028 141.492 267.028 141.492 267.029 141.492C267.029 141.492 267.03 141.492 267.031 141.492C267.031 141.492 267.032 141.492 267.032 141.492C267.033 141.492 267.033 141.492 267.034 141.492C267.035 141.492 267.035 141.492 267.036 141.492C267.036 141.492 267.037 141.492 267.037 141.492C267.038 141.492 267.038 141.492 267.039 141.492C267.04 141.492 267.04 141.492 267.041 141.492C267.041 141.492 267.042 141.492 267.042 141.492C267.043 141.492 267.044 141.492 267.044 141.492C267.045 141.492 267.045 141.492 267.046 141.492C267.046 141.492 267.047 141.492 267.047 141.492C267.048 141.492 267.049 141.492 267.049 141.492C267.05 141.492 267.05 141.492 267.051 141.492C267.051 141.492 267.052 141.492 267.053 141.492C267.053 141.492 267.054 141.492 267.054 141.492C267.055 141.492 267.055 141.492 267.056 141.492C267.057 141.492 267.057 141.492 267.058 141.492C267.058 141.492 267.059 141.492 267.059 141.492C267.06 141.492 267.06 141.492 267.061 141.492C267.062 141.492 267.062 141.492 267.063 141.492C267.063 141.492 267.064 141.492 267.064 141.492C267.065 141.492 267.066 141.492 267.066 141.492C267.067 141.492 267.067 141.492 267.068 141.492C267.068 141.492 267.069 141.492 267.07 141.492C267.07 141.492 267.071 141.492 267.071 141.492C267.072 141.492 267.072 141.492 267.073 141.492C267.073 141.492 267.074 141.492 267.075 141.492C267.075 141.492 267.076 141.492 267.076 141.492C267.077 141.492 267.077 141.492 267.078 141.492C267.079 141.492 267.079 141.492 267.08 141.492C267.08 141.492 267.081 141.492 267.081 141.492C267.082 141.492 267.082 141.492 267.083 141.492C267.084 141.492 267.084 141.492 267.085 141.492C267.085 141.492 267.086 141.492 267.086 141.492C267.087 141.492 267.088 141.492 267.088 141.492C267.089 141.492 267.089 141.492 267.09 141.492C267.09 141.492 267.091 141.492 267.092 141.492C267.092 141.492 267.093 141.492 267.093 141.492C267.094 141.492 267.094 141.492 267.095 141.492C267.095 141.492 267.096 141.492 267.097 141.492C267.097 141.492 267.098 141.492 267.098 141.492C267.099 141.492 267.099 141.492 267.1 141.492C267.101 141.492 267.101 141.492 267.102 141.492C267.102 141.492 267.103 141.492 267.103 141.492C267.104 141.492 267.105 141.492 267.105 141.492C267.106 141.492 267.106 141.492 267.107 141.492C267.107 141.492 267.108 141.492 267.108 141.492C267.109 141.492 267.11 141.492 267.11 141.492C267.111 141.492 267.111 141.492 267.112 141.492C267.112 141.492 267.113 141.492 267.114 141.492C267.114 141.492 267.115 141.492 267.115 141.492C267.116 141.492 267.116 141.492 267.117 141.492C267.118 141.492 267.118 141.492 267.119 141.492C267.119 141.492 267.12 141.492 267.12 141.492C267.121 141.492 267.121 141.492 267.122 141.492C267.123 141.492 267.123 141.492 267.124 141.492C267.124 141.492 267.125 141.492 267.125 141.492C267.126 141.492 267.127 141.492 267.127 141.492C267.128 141.492 267.128 141.492 267.129 141.492C267.129 141.492 267.13 141.492 267.13 141.492C267.131 141.492 267.132 141.492 267.132 141.492C267.133 141.492 267.133 141.492 267.134 141.492C267.134 141.492 267.135 141.492 267.136 141.492C267.136 141.492 267.137 141.492 267.137 141.492C267.138 141.492 267.138 141.492 267.139 141.492C267.14 141.492 267.14 141.492 267.141 141.492C267.141 141.492 267.142 141.492 267.142 141.492C267.143 141.492 267.143 141.492 267.144 141.492C267.145 141.492 267.145 141.492 267.146 141.492C267.146 141.492 267.147 141.492 267.147 141.492C267.148 141.492 267.149 141.492 267.149 141.492C267.15 141.492 267.15 141.492 267.151 141.492C267.151 141.492 267.152 141.492 267.153 141.492C267.153 141.492 267.154 141.492 267.154 141.492C267.155 141.492 267.155 141.492 267.156 141.492C267.156 141.492 267.157 141.492 267.158 141.492C267.158 141.492 267.159 141.492 267.159 141.492C267.16 141.492 267.16 141.492 267.161 141.492C267.162 141.492 267.162 141.492 267.163 141.492C267.163 141.492 267.164 141.492 267.164 141.492C267.165 141.492 267.166 141.492 267.166 141.492C267.167 141.492 267.167 141.492 267.168 141.492C267.168 141.492 267.169 141.492 267.17 141.492C267.17 141.492 267.171 141.492 267.171 141.492C267.172 141.492 267.172 141.492 267.173 141.492C267.173 141.492 267.174 141.492 267.175 141.492C267.175 141.492 267.176 141.492 267.176 141.492C267.177 141.492 267.177 141.492 267.178 141.492C267.179 141.492 267.179 141.492 267.18 141.492C267.18 141.492 267.181 141.492 267.181 141.492C267.182 141.492 267.183 141.492 267.183 141.492C267.184 141.492 267.184 141.492 267.185 141.492C267.185 141.492 267.186 141.492 267.187 141.492C267.187 141.492 267.188 141.492 267.188 141.492C267.189 141.492 267.189 141.492 267.19 141.492C267.19 141.492 267.191 141.492 267.192 141.492C267.192 141.492 267.193 141.492 267.193 141.492C267.194 141.492 267.194 141.492 267.195 141.492C267.196 141.492 267.196 141.492 267.197 141.492C267.197 141.492 267.198 141.492 267.198 141.492C267.199 141.492 267.2 141.492 267.2 141.492C267.201 141.492 267.201 141.492 267.202 141.492C267.202 141.492 267.203 141.492 267.204 141.492C267.204 141.492 267.205 141.492 267.205 141.492C267.206 141.492 267.206 141.492 267.207 141.492C267.207 141.492 267.208 141.492 267.209 141.492C267.209 141.492 267.21 141.492 267.21 141.492C267.211 141.492 267.211 141.492 267.212 141.492C267.213 141.492 267.213 141.492 267.214 141.492C267.214 141.492 267.215 141.492 267.215 141.492C267.216 141.492 267.217 141.492 267.217 141.492C267.218 141.492 267.218 141.492 267.219 141.492C267.219 141.492 267.22 141.492 267.221 141.492C267.221 141.492 267.222 141.492 267.222 141.492C267.223 141.492 267.223 141.492 267.224 141.492C267.225 141.492 267.225 141.492 267.226 141.492C267.226 141.492 267.227 141.492 267.227 141.492C267.228 141.492 267.229 141.492 267.229 141.492C267.23 141.492 267.23 141.492 267.231 141.492C267.231 141.492 267.232 141.492 267.232 141.492C267.233 141.492 267.234 141.492 267.234 141.492C267.235 141.492 267.235 141.492 267.236 141.492C267.236 141.492 267.237 141.492 267.238 141.492C267.238 141.492 267.239 141.492 267.239 141.492C267.24 141.492 267.24 141.492 267.241 141.492C267.242 141.492 267.242 141.492 267.243 141.492C267.243 141.492 267.244 141.492 267.244 141.492C267.245 141.492 267.246 141.492 267.246 141.492C267.247 141.492 267.247 141.492 267.248 141.492C267.248 141.492 267.249 141.492 267.25 141.492C267.25 141.492 267.251 141.492 267.251 141.492C267.252 141.492 267.252 141.492 267.253 141.492C267.254 141.492 267.254 141.492 267.255 141.492C267.255 141.492 267.256 141.492 267.256 141.492C267.257 141.492 267.258 141.492 267.258 141.492C267.259 141.492 267.259 141.492 267.26 141.492C267.26 141.492 267.261 141.492 267.262 141.492C267.262 141.492 267.263 141.492 267.263 141.492C267.264 141.492 267.264 141.492 267.265 141.492C267.266 141.492 267.266 141.492 267.267 141.492C267.267 141.492 267.268 141.492 267.268 141.492C267.269 141.492 267.27 141.492 267.27 141.492C267.271 141.492 267.271 141.492 267.272 141.492C267.272 141.492 267.273 141.492 267.274 141.492C267.274 141.492 267.275 141.492 267.275 141.492C267.276 141.492 267.276 141.492 267.277 141.492C267.278 141.492 267.278 141.492 267.279 141.492C267.279 141.492 267.28 141.492 267.28 141.492C267.281 141.492 267.282 141.492 267.282 141.492C267.283 141.492 267.283 141.492 267.284 141.492C267.284 141.492 267.285 141.492 267.286 141.492C267.286 141.492 267.287 141.492 267.287 141.492C267.288 141.492 267.288 141.492 267.289 141.492C267.29 141.492 267.29 141.492 267.291 141.492C267.291 141.492 267.292 141.492 267.292 141.492C267.293 141.492 267.294 141.492 267.294 141.492C267.295 141.492 267.295 141.492 267.296 141.492C267.296 141.492 267.297 141.492 267.298 141.492C267.298 141.492 267.299 141.492 267.299 141.492C267.3 141.492 267.3 141.492 267.301 141.492C267.302 141.492 267.302 141.492 267.303 141.492C267.303 141.492 267.304 141.492 267.304 141.492C267.305 141.492 267.306 141.492 267.306 141.492C267.307 141.492 267.307 141.492 267.308 141.492C267.308 141.492 267.309 141.492 267.31 141.492C267.31 141.492 267.311 141.492 267.311 141.492C267.312 141.492 267.312 141.492 267.313 141.492C267.314 141.492 267.314 141.492 267.315 141.492C267.315 141.492 267.316 141.492 267.317 141.492C267.317 141.492 267.318 141.492 267.318 141.492C267.319 141.492 267.319 141.492 267.32 141.492C267.321 141.492 267.321 141.492 267.322 141.492C267.322 141.492 267.323 141.492 267.323 141.492C267.324 141.492 267.325 141.492 267.325 141.492C267.326 141.492 267.326 141.492 267.327 141.492C267.327 141.492 267.328 141.492 267.329 141.492C267.329 141.492 267.33 141.492 267.33 141.492C267.331 141.492 267.331 141.492 267.332 141.492C267.333 141.492 267.333 141.492 267.334 141.492C267.334 141.492 267.335 141.492 267.335 141.492C267.336 141.492 267.337 141.492 267.337 141.492C267.338 141.492 267.338 141.492 267.339 141.492C267.34 141.492 267.34 141.492 267.341 141.492C267.341 141.492 267.342 141.492 267.342 141.492C267.343 141.492 267.344 141.492 267.344 141.492C267.345 141.492 267.345 141.492 267.346 141.492C267.346 141.492 267.347 141.492 267.348 141.492C267.348 141.492 267.349 141.492 267.349 141.492C267.35 141.492 267.35 141.492 267.351 141.492C267.352 141.492 267.352 141.492 267.353 141.492C267.353 141.492 267.354 141.492 267.355 141.492C267.355 141.492 267.356 141.492 267.356 141.492C267.357 141.492 267.357 141.492 267.358 141.492C267.359 141.492 267.359 141.492 267.36 141.492C267.36 141.492 267.361 141.492 267.361 141.492C267.362 141.492 267.363 141.492 267.363 141.492C267.364 141.492 267.364 141.492 267.365 141.492C267.366 141.492 267.366 141.492 267.367 141.492C267.367 141.492 267.368 141.492 267.368 141.492C267.369 141.492 267.37 141.492 267.37 141.492C267.371 141.492 267.371 141.492 267.372 141.492C267.372 141.492 267.373 141.492 267.374 141.492C267.374 141.492 267.375 141.492 267.375 141.492C267.376 141.492 267.377 141.492 267.377 141.492C267.378 141.492 267.378 141.492 267.379 141.492C267.379 141.492 267.38 141.492 267.381 141.492C267.381 141.492 267.382 141.492 267.382 141.492C267.383 141.492 267.384 141.492 267.384 141.492C267.385 141.492 267.385 141.492 267.386 141.492C267.386 141.492 267.387 141.492 267.388 141.492C267.388 141.492 267.389 141.492 267.389 141.492C267.39 141.492 267.39 141.492 267.391 141.492C267.392 141.492 267.392 141.492 267.393 141.492C267.393 141.492 267.394 141.492 267.395 141.492C267.395 141.492 267.396 141.492 267.396 141.492C267.397 141.492 267.397 141.492 267.398 141.492C267.399 141.492 267.399 141.492 267.4 141.492C267.4 141.492 267.401 141.492 267.402 141.492C267.402 141.492 267.403 141.492 267.403 141.492C267.404 141.492 267.404 141.492 267.405 141.492C267.406 141.492 267.406 141.492 267.407 141.492C267.407 141.492 267.408 141.492 267.409 141.492C267.409 141.492 267.41 141.492 267.41 141.492C267.411 141.492 267.411 141.492 267.412 141.492C267.413 141.492 267.413 141.492 267.414 141.492C267.414 141.492 267.415 141.492 267.416 141.492C267.416 141.492 267.417 141.492 267.417 141.492C267.418 141.492 267.418 141.492 267.419 141.492C267.42 141.492 267.42 141.492 267.421 141.492C267.421 141.492 267.422 141.492 267.423 141.492C267.423 141.492 267.424 141.492 267.424 141.492C267.425 141.492 267.426 141.492 267.426 141.492C267.427 141.492 267.427 141.492 267.428 141.492C267.428 141.492 267.429 141.492 267.43 141.492C267.43 141.492 267.431 141.492 267.431 141.492C267.432 141.492 267.433 141.492 267.433 141.492C267.434 141.492 267.434 141.492 267.435 141.492C267.435 141.492 267.436 141.492 267.437 141.492C267.437 141.492 267.438 141.492 267.438 141.492C267.439 141.492 267.44 141.492 267.44 141.492C267.441 141.492 267.441 141.492 267.442 141.492C267.443 141.492 267.443 141.492 267.444 141.492C267.444 141.492 267.445 141.492 267.445 141.492C267.446 141.492 267.447 141.492 267.447 141.492C267.448 141.492 267.448 141.492 267.449 141.492C267.45 141.492 267.45 141.492 267.451 141.492C267.451 141.492 267.452 141.492 267.453 141.492C267.453 141.492 267.454 141.492 267.454 141.492C267.455 141.492 267.455 141.492 267.456 141.492C267.457 141.492 267.457 141.492 267.458 141.492C267.458 141.492 267.459 141.492 267.46 141.492C267.46 141.492 267.461 141.492 267.461 141.492C267.462 141.492 267.463 141.492 267.463 141.492C267.464 141.492 267.464 141.492 267.465 141.492C267.466 141.492 267.466 141.492 267.467 141.492C267.467 141.492 267.468 141.492 267.468 141.492C267.469 141.492 267.47 141.492 267.47 141.492C267.471 141.492 267.471 141.492 267.472 141.492C267.473 141.492 267.473 141.492 267.474 141.492C267.474 141.492 267.475 141.492 267.476 141.492C267.476 141.492 267.477 141.492 267.477 141.492C267.478 141.492 267.479 141.492 267.479 141.492C267.48 141.492 267.48 141.492 267.481 141.492C267.481 141.492 267.482 141.492 267.483 141.492C267.483 141.492 267.484 141.492 267.484 141.492C267.485 141.492 267.486 141.492 267.486 141.492C267.487 141.492 267.487 141.492 267.488 141.492C267.489 141.492 267.489 141.492 267.49 141.492C267.49 141.492 267.491 141.492 267.492 141.492C267.492 141.492 267.493 141.492 267.493 141.492C267.494 141.492 267.495 141.492 267.495 141.492C267.496 141.492 267.496 141.492 267.497 141.492C267.498 141.492 267.498 141.492 267.499 141.492C267.499 141.492 267.5 141.492 267.5 141.492C267.501 141.492 267.502 141.492 267.502 141.492C267.503 141.492 267.503 141.492 267.504 141.492C267.505 141.492 267.505 141.492 267.506 141.492C267.506 141.492 267.507 141.492 267.508 141.492C267.508 141.492 267.509 141.492 267.509 141.492C267.51 141.492 267.511 141.492 267.511 141.492C267.512 141.492 267.512 141.492 267.513 141.492C267.514 141.492 267.514 141.492 267.515 141.492C267.515 141.492 267.516 141.492 267.517 141.492V137.492ZM266.633 137.492H255.957V141.492H266.633V137.492ZM253.957 139.492V145H257.957V139.492H253.957ZM255.957 143H250.245V147H255.957V143ZM252.245 145V121.234H248.245V145H252.245ZM250.245 123.234H266.633V119.234H250.245V123.234ZM266.633 123.234C269.788 123.234 272.498 124.136 274.367 125.498C276.228 126.855 277.179 128.589 277.179 130.38H281.179C281.179 127.037 279.375 124.198 276.723 122.265C274.079 120.338 270.515 119.234 266.633 119.234V123.234ZM277.179 130.38C277.179 132.546 275.771 134.678 273.007 136.075L274.811 139.645C278.506 137.778 281.179 134.47 281.179 130.38H277.179ZM272.531 139.31L280.045 146.45L282.8 143.55L275.286 136.41L272.531 139.31ZM253.957 126.708V134.018H257.957V126.708H253.957ZM255.957 136.018H266.633V132.018H255.957V136.018ZM266.633 136.018C268.902 136.018 270.958 135.459 272.508 134.573C273.909 133.772 275.467 132.342 275.467 130.38H271.467C271.467 130.118 271.562 130.507 270.524 131.1C269.634 131.608 268.273 132.018 266.633 132.018V136.018ZM275.467 130.38C275.467 128.413 273.926 126.973 272.513 126.16C270.96 125.267 268.901 124.708 266.633 124.708V128.708C268.274 128.708 269.632 129.118 270.519 129.628C271.545 130.217 271.467 130.613 271.467 130.38H275.467ZM266.633 124.708H255.957V128.708H266.633V124.708ZM308.168 126.912V128.912H310.168V126.912H308.168ZM290.522 126.912V124.912H288.522V126.912H290.522ZM290.522 130.312H288.522V132.312H290.522V130.312ZM306.638 130.312H308.638V128.312H306.638V130.312ZM306.638 136.024V138.024H308.638V136.024H306.638ZM290.522 136.024V134.024H288.522V136.024H290.522ZM290.522 139.39H288.522V141.39H290.522V139.39ZM308.168 139.39H310.168V137.39H308.168V139.39ZM308.168 145.102V147.102H310.168V145.102H308.168ZM284.81 145.102H282.81V147.102H284.81V145.102ZM284.81 121.2V119.2H282.81V121.2H284.81ZM308.168 121.2H310.168V119.2H308.168V121.2ZM308.168 124.912H290.522V128.912H308.168V124.912ZM288.522 126.912V130.312H292.522V126.912H288.522ZM290.522 132.312H306.638V128.312H290.522V132.312ZM304.638 130.312V136.024H308.638V130.312H304.638ZM306.638 134.024H290.522V138.024H306.638V134.024ZM288.522 136.024V139.39H292.522V136.024H288.522ZM290.522 141.39H308.168V137.39H290.522V141.39ZM306.168 139.39V145.102H310.168V139.39H306.168ZM308.168 143.102H284.81V147.102H308.168V143.102ZM286.81 145.102V121.2H282.81V145.102H286.81ZM284.81 123.2H308.168V119.2H284.81V123.2ZM306.168 121.2V126.912H310.168V121.2H306.168Z" fill="url(#paint0_linear_391_101)"/>
</g>
<defs>
<linearGradient id="paint0_linear_391_101" x1="16" y1="138" x2="311" y2="138" gradientUnits="userSpaceOnUse">
<stop offset="0.235343" stop-color="#E1B58C"/>
<stop offset="1" stop-color="#6CC3F2"/>
</linearGradient>
<clipPath id="clip0_391_101">
<rect width="324" height="275" fill="white" transform="translate(1)"/>
</clipPath>
</defs>
</svg>
