<svg width="204" height="78" viewBox="0 0 204 78" fill="none" xmlns="http://www.w3.org/2000/svg">
<path d="M87.5849 75.7456C86.6103 75.7456 86.4062 75.4299 86.3383 75.3172C86.2476 75.182 86.2022 75.0918 86.2022 75.0467V55.1409C86.2022 54.4195 85.9983 53.856 85.5902 53.4953C84.8876 52.6386 83.8903 52.1878 82.7116 52.1878H56.9396C55.1489 52.1878 54.3556 52.9993 54.0156 53.6756L39.7809 75.3172C39.5996 75.6554 39.0102 75.6779 38.8289 75.6779H4.67024C4.67024 75.6779 4.55691 75.6779 4.48891 75.6779C8.61425 68.5317 13.9409 60.0779 20.3329 50.6097L21.1262 49.46L19.8116 48.9415C14.5302 46.8675 10.2236 43.8467 7.02758 39.9693C3.87691 36.1594 2.26758 31.8536 2.26758 27.1646C2.26758 21.9797 3.80891 17.4935 6.86891 13.819C9.97425 10.0993 14.1449 7.2363 19.2676 5.34266C24.4582 3.40393 30.1929 2.43457 36.3129 2.43457H117.618C118.049 2.43457 118.412 2.54729 118.706 2.75018C118.978 2.95307 118.978 3.06578 118.978 3.13341V75.0918C118.978 75.0918 118.978 75.2721 118.706 75.475C118.412 75.7005 118.049 75.7906 117.618 75.7906H87.5623L87.5849 75.7456ZM41.9342 23.8057C40.1209 23.8057 38.7382 24.1438 37.7636 24.8201C36.3809 25.7669 36.0862 26.9392 36.0862 27.7508C36.0862 28.6299 36.3809 29.8473 37.8543 30.7941C38.8742 31.4479 40.2569 31.786 41.9342 31.786L81.9863 31.8987C82.6663 31.8987 83.3009 31.7409 83.8676 31.4253C84.7289 30.7941 84.8876 30.1404 84.8876 29.6895V26.0149C84.8876 25.3612 84.5703 24.775 83.9809 24.3467L83.8903 24.2791L83.7769 24.234C83.1423 23.9409 82.5529 23.8057 81.9863 23.8057H41.9342Z" fill="#111110"/>
<path d="M117.618 3.49457C117.618 3.49457 117.799 3.49457 117.844 3.49457V74.5738C117.844 74.5738 117.708 74.5738 117.618 74.5738H87.5618C87.5618 74.5738 87.3804 74.5738 87.3351 74.5738V55.0963C87.3351 53.879 86.9045 53.135 86.4285 52.6842C85.5218 51.6021 84.2071 51.016 82.7111 51.016H56.9391C54.5818 51.016 53.5165 52.1882 53.0858 52.9772L38.9418 74.4836C38.9418 74.4836 38.8738 74.4836 38.8285 74.4836H6.43779C10.4271 67.653 15.4138 59.8304 21.2618 51.1512L22.8258 48.8293L20.2191 47.7923C15.1191 45.7859 10.9485 42.8778 7.88846 39.1582C4.87379 35.5061 3.40046 31.5385 3.40046 27.0524C3.40046 22.0703 4.82846 17.9449 7.72979 14.4281C10.6991 10.8662 14.7111 8.11596 19.6525 6.28995C24.7298 4.41885 30.3285 3.44948 36.3125 3.44948H117.618M81.9631 32.9813C82.8471 32.9813 83.6631 32.7784 84.3885 32.3726L84.5245 32.305L84.6378 32.2148C85.4991 31.561 85.9751 30.6593 85.9751 29.6449V25.9703C85.9751 24.9558 85.4991 24.0541 84.6151 23.4003L84.4111 23.2425L84.1844 23.1524C83.3911 22.7917 82.6658 22.6339 81.9405 22.6339H41.9338C39.8711 22.6339 38.3071 23.0397 37.1058 23.8512C35.7231 24.798 34.9525 26.1732 34.9525 27.7061C34.9525 29.3293 35.7685 30.7495 37.2418 31.6963C38.4431 32.4853 40.0298 32.8686 41.9338 32.8686L81.9858 32.9813M117.618 1.24023H36.3351C30.0565 1.24023 24.2311 2.23214 18.8818 4.21596C13.5325 6.19977 9.22579 9.13041 5.98446 13.0304C2.74312 16.9304 1.13379 21.6194 1.13379 27.0975C1.13379 32.0795 2.81112 36.5882 6.14312 40.6235C9.47512 44.6587 13.8951 47.7697 19.4031 49.9339C12.9205 59.5373 7.57112 68.0136 3.35512 75.3628L3.19646 75.6784C3.19646 75.9714 3.35512 76.2194 3.64979 76.4449C3.94446 76.6703 4.28446 76.7605 4.69246 76.7605H38.8511C39.8258 76.7605 40.4605 76.4674 40.7551 75.9038L55.0351 54.1495C55.3298 53.5634 55.9645 53.2928 56.9391 53.2928H82.7111C83.5951 53.2928 84.2751 53.6084 84.7738 54.2622C84.9778 54.3975 85.0685 54.6905 85.0685 55.1189V75.0246C85.0685 75.3177 85.1591 75.6108 85.3631 75.8813C85.7485 76.535 86.4965 76.8506 87.5618 76.8506H117.618C118.298 76.8506 118.887 76.6703 119.386 76.3096C119.884 75.9489 120.111 75.5206 120.111 75.0021V3.08879C120.111 2.59284 119.862 2.14197 119.386 1.78127C118.887 1.42058 118.298 1.24023 117.618 1.24023ZM81.9858 30.772L41.9338 30.6593C40.4605 30.6593 39.3045 30.3888 38.4658 29.8477C37.6271 29.3067 37.2191 28.6079 37.2191 27.7287C37.2191 26.9397 37.6045 26.2634 38.3978 25.7223C39.1911 25.1813 40.3698 24.9108 41.9338 24.9108H81.9858C82.3711 24.9108 82.8245 25.0235 83.3231 25.2264C83.6178 25.4518 83.7538 25.6998 83.7538 25.9928V29.6674C83.7538 29.9605 83.5951 30.2084 83.3231 30.4339C82.9378 30.6593 82.4845 30.7495 81.9858 30.7495V30.772Z" fill="#6FC2EE"/>
<path d="M87.4938 75.7452C87.0631 75.7452 86.7005 75.6325 86.4058 75.4296C86.1338 75.2267 86.1338 75.0915 86.1338 75.0464V2.97529C86.1338 2.97529 86.1338 2.81749 86.3605 2.65969C86.6551 2.4568 87.0405 2.36662 87.4938 2.36662L168.028 2.25391C174.103 2.25391 179.792 3.22327 184.983 5.162C190.083 7.07818 194.208 9.91865 197.246 13.6383C200.238 17.3129 201.756 21.799 201.756 27.0065C201.756 31.6279 200.215 35.866 197.178 39.6082C194.095 43.4181 189.902 46.4389 184.734 48.5805C179.543 50.7447 173.922 51.8493 168.051 51.8493L122.219 51.962C121.29 51.962 120.474 52.21 119.794 52.7285C118.819 53.4499 118.615 54.3291 118.615 54.9377V75.0689C118.615 75.0689 118.615 75.2493 118.343 75.4522C118.048 75.6776 117.708 75.7678 117.255 75.7678H87.5391L87.4938 75.7452ZM122.922 23.6926C122.083 23.6926 121.426 23.873 120.927 24.2337C120.043 24.7071 119.884 25.4961 119.884 25.9019V29.4637C119.884 29.8695 120.043 30.6585 121.063 31.1996C121.426 31.4926 122.083 31.673 122.922 31.673L162.452 31.5603C164.152 31.5603 165.49 31.2447 166.51 30.5684C167.96 29.6215 168.278 28.4493 168.278 27.6152C168.278 26.7811 167.983 25.6314 166.623 24.6845C165.648 24.0082 164.288 23.6701 162.475 23.6701H122.944L122.922 23.6926Z" fill="#111110"/>
<path d="M168.028 3.38129C173.967 3.38129 179.543 4.32811 184.575 6.22175C189.493 8.04776 193.46 10.7981 196.339 14.3374C199.195 17.8541 200.6 22.0021 200.6 26.9842C200.6 31.4027 199.195 35.2801 196.271 38.8871C193.301 42.5391 189.267 45.4472 184.28 47.5212C179.225 49.6403 173.763 50.6998 168.028 50.6998L122.196 50.8125C121.017 50.8125 119.975 51.1507 119.091 51.8044C118.025 52.5934 117.436 53.6981 117.436 54.9154V74.6183C117.436 74.6183 117.3 74.6183 117.209 74.6183H87.4933C87.4933 74.6183 87.3347 74.6183 87.2667 74.6183V3.51655C87.2667 3.51655 87.4027 3.51655 87.4933 3.51655L168.028 3.40383M120.383 23.2645C118.909 24.1437 118.751 25.4061 118.751 25.9246V29.4865C118.751 30.005 118.909 31.2674 120.383 32.1466C121.063 32.5975 121.901 32.8229 122.921 32.8229L162.452 32.7102C164.379 32.7102 165.92 32.327 167.144 31.5379C168.595 30.5911 169.411 29.1934 169.411 27.6605C169.411 26.1275 168.64 24.7749 167.257 23.8056C166.079 22.994 164.492 22.5882 162.452 22.5882H122.921C121.901 22.5882 121.063 22.8137 120.383 23.2645ZM168.028 1.12695L87.4933 1.23967C86.8133 1.23967 86.224 1.39747 85.7253 1.73562C85.2267 2.07377 85 2.47955 85 2.97551V75.0466C85 75.5426 85.2493 75.9934 85.7253 76.3541C86.224 76.7148 86.7907 76.8952 87.4933 76.8952H117.209C117.889 76.8952 118.479 76.7148 118.977 76.3541C119.453 75.9934 119.703 75.5651 119.703 75.0466V54.9154C119.703 54.4194 119.952 53.9686 120.428 53.6079C120.904 53.2472 121.493 53.0668 122.196 53.0668L168.028 52.9541C174.08 52.9541 179.792 51.827 185.164 49.5952C190.536 47.3634 194.82 44.2524 198.061 40.2848C201.28 36.3171 202.889 31.8761 202.889 26.9842C202.889 21.5061 201.303 16.8171 198.129 12.9171C194.956 9.01713 190.717 6.08649 185.391 4.10268C180.064 2.11886 174.284 1.12695 168.051 1.12695H168.028ZM122.921 30.5686C122.332 30.5686 121.901 30.4559 121.607 30.253C121.221 30.0275 121.017 29.7796 121.017 29.4865V25.9246C121.017 25.6316 121.221 25.3836 121.607 25.1582C121.901 24.9327 122.332 24.8426 122.921 24.8426H162.452C164.016 24.8426 165.195 25.1131 165.965 25.6541C166.759 26.1952 167.144 26.8715 167.144 27.6605C167.144 28.4495 166.736 29.1258 165.897 29.6668C165.059 30.2079 163.925 30.4784 162.452 30.4784L122.921 30.5911V30.5686Z" fill="#E0B58C"/>
</svg>
