<svg id="visual" viewBox="0 0 1920 1080" width="1920" height="1080" xmlns="http://www.w3.org/2000/svg" xmlns:xlink="http://www.w3.org/1999/xlink" version="1.1"><path d="M0 141L40 155.5C80 170 160 199 240 208C320 217 400 206 480 209.5C560 213 640 231 720 211.3C800 191.7 880 134.3 960 105.7C1040 77 1120 77 1200 66.2C1280 55.3 1360 33.7 1440 24.7C1520 15.7 1600 19.3 1680 19.3C1760 19.3 1840 15.7 1880 13.8L1920 12L1920 0L1880 0C1840 0 1760 0 1680 0C1600 0 1520 0 1440 0C1360 0 1280 0 1200 0C1120 0 1040 0 960 0C880 0 800 0 720 0C640 0 560 0 480 0C400 0 320 0 240 0C160 0 80 0 40 0L0 0Z" fill="#faf7f5"></path><path d="M0 206L40 211.5C80 217 160 228 240 240.7C320 253.3 400 267.7 480 289.2C560 310.7 640 339.3 720 308.7C800 278 880 188 960 139.5C1040 91 1120 84 1200 94.8C1280 105.7 1360 134.3 1440 155.8C1520 177.3 1600 191.7 1680 186.3C1760 181 1840 156 1880 143.5L1920 131L1920 10L1880 11.8C1840 13.7 1760 17.3 1680 17.3C1600 17.3 1520 13.7 1440 22.7C1360 31.7 1280 53.3 1200 64.2C1120 75 1040 75 960 103.7C880 132.3 800 189.7 720 209.3C640 229 560 211 480 207.5C400 204 320 215 240 206C160 197 80 168 40 153.5L0 139Z" fill="#b67786"></path><path d="M0 692L40 679.5C80 667 160 642 240 643.8C320 645.7 400 674.3 480 677.8C560 681.3 640 659.7 720 623.7C800 587.7 880 537.3 960 515.8C1040 494.3 1120 501.7 1200 526.8C1280 552 1360 595 1440 562.5C1520 530 1600 422 1680 441.8C1760 461.7 1840 609.3 1880 683.2L1920 757L1920 129L1880 141.5C1840 154 1760 179 1680 184.3C1600 189.7 1520 175.3 1440 153.8C1360 132.3 1280 103.7 1200 92.8C1120 82 1040 89 960 137.5C880 186 800 276 720 306.7C640 337.3 560 308.7 480 287.2C400 265.7 320 251.3 240 238.7C160 226 80 215 40 209.5L0 204Z" fill="#2f1966"></path><path d="M0 789L40 792.7C80 796.3 160 803.7 240 821.7C320 839.7 400 868.3 480 841.3C560 814.3 640 731.7 720 683.2C800 634.7 880 620.3 960 624C1040 627.7 1120 649.3 1200 656.5C1280 663.7 1360 656.3 1440 614.8C1520 573.3 1600 497.7 1680 535.5C1760 573.3 1840 724.7 1880 800.3L1920 876L1920 755L1880 681.2C1840 607.3 1760 459.7 1680 439.8C1600 420 1520 528 1440 560.5C1360 593 1280 550 1200 524.8C1120 499.7 1040 492.3 960 513.8C880 535.3 800 585.7 720 621.7C640 657.7 560 679.3 480 675.8C400 672.3 320 643.7 240 641.8C160 640 80 665 40 677.5L0 690Z" fill="#2f1966"></path><path d="M0 930L40 935.3C80 940.7 160 951.3 240 951.3C320 951.3 400 940.7 480 917.3C560 894 640 858 720 867C800 876 880 930 960 948C1040 966 1120 948 1200 926.3C1280 904.7 1360 879.3 1440 837.8C1520 796.3 1600 738.7 1680 763.8C1760 789 1840 897 1880 951L1920 1005L1920 874L1880 798.3C1840 722.7 1760 571.3 1680 533.5C1600 495.7 1520 571.3 1440 612.8C1360 654.3 1280 661.7 1200 654.5C1120 647.3 1040 625.7 960 622C880 618.3 800 632.7 720 681.2C640 729.7 560 812.3 480 839.3C400 866.3 320 837.7 240 819.7C160 801.7 80 794.3 40 790.7L0 787Z" fill="#b67786"></path><path d="M0 1081L40 1081C80 1081 160 1081 240 1081C320 1081 400 1081 480 1081C560 1081 640 1081 720 1081C800 1081 880 1081 960 1081C1040 1081 1120 1081 1200 1081C1280 1081 1360 1081 1440 1081C1520 1081 1600 1081 1680 1081C1760 1081 1840 1081 1880 1081L1920 1081L1920 1003L1880 949C1840 895 1760 787 1680 761.8C1600 736.7 1520 794.3 1440 835.8C1360 877.3 1280 902.7 1200 924.3C1120 946 1040 964 960 946C880 928 800 874 720 865C640 856 560 892 480 915.3C400 938.7 320 949.3 240 949.3C160 949.3 80 938.7 40 933.3L0 928Z" fill="#faf7f5"></path></svg>